<svg width="358" height="358" viewBox="0 0 358 358" fill="none" xmlns="http://www.w3.org/2000/svg">
<path d="M178.715 223.281C154.113 223.281 134.111 203.278 134.111 178.677C134.111 154.076 154.113 134.073 178.715 134.073C203.316 134.073 223.319 154.076 223.319 178.677C223.281 203.278 203.279 223.281 178.715 223.281ZM178.715 152.805C164.432 152.805 152.805 164.432 152.805 178.715C152.805 192.997 164.432 204.624 178.715 204.624C192.997 204.624 204.625 192.997 204.625 178.715C204.625 164.432 192.997 152.805 178.715 152.805Z" fill="#FACC15"/>
<path d="M178.79 257.267C173.406 257.267 168.022 256.706 162.713 255.622C142.187 251.36 124.54 239.321 113.024 221.786C101.509 204.251 97.5454 183.276 101.808 162.713C105.509 144.916 115.342 128.876 129.437 117.51C143.383 106.294 160.843 100.125 178.64 100.125C184.024 100.125 189.408 100.686 194.717 101.77C215.243 106.032 232.89 118.071 244.406 135.606C255.921 153.141 259.884 174.116 255.622 194.679C251.921 212.476 242.088 228.516 227.992 239.881C214.009 251.098 196.549 257.267 178.79 257.267ZM178.64 118.819C150.487 118.819 125.848 138.859 120.09 166.489C113.361 198.792 134.186 230.572 166.489 237.302C170.527 238.162 174.677 238.573 178.752 238.573C206.905 238.573 231.544 218.533 237.302 190.903C240.555 175.238 237.526 159.273 228.777 145.888C220.029 132.503 206.569 123.343 190.903 120.09C186.865 119.268 182.715 118.819 178.64 118.819Z" fill="#FACC15"/>
<path d="M178.827 290.131C175.387 290.131 171.91 289.982 168.433 289.645C138.784 286.916 112.015 272.783 92.9842 249.902C73.9536 227.02 65.0179 198.082 67.7472 168.471C70.327 140.654 83.1137 114.968 103.827 96.2368C124.39 77.5802 150.936 67.3359 178.565 67.3359C182.005 67.3359 185.482 67.4854 188.959 67.8219C218.608 70.5512 245.378 84.6839 264.408 107.565C283.439 130.447 292.375 159.385 289.645 189.034C287.065 216.851 274.279 242.536 253.566 261.268C233.002 279.849 206.457 290.131 178.827 290.131ZM178.565 85.9925C130.447 85.9925 90.8156 122.184 86.3664 170.19C81.6555 221.113 119.231 266.352 170.153 271.063C173.032 271.325 175.948 271.475 178.827 271.475C226.946 271.475 266.577 235.283 271.026 187.277C275.737 136.354 238.162 91.1147 187.239 86.4038C184.361 86.1047 181.444 85.9925 178.565 85.9925Z" fill="#FACC15"/>
<path d="M178.79 323.631C177.107 323.631 175.387 323.593 173.667 323.556C154.113 322.883 135.27 318.396 117.66 310.208C100.649 302.32 85.5438 291.327 72.6824 277.569C59.8209 263.81 49.9505 247.957 43.258 230.46C36.3038 212.326 33.1632 193.221 33.8361 173.667C35.1447 135.868 50.8477 100.611 78.1036 74.3646C105.247 48.193 140.953 33.7612 178.603 33.7612C180.285 33.7612 182.005 33.7986 183.725 33.836C203.279 34.509 222.122 38.9955 239.732 47.1835C256.744 55.0724 271.848 66.0645 284.71 79.8233C297.571 93.5821 307.442 109.435 314.134 126.932C321.088 145.065 324.229 164.171 323.556 183.725C322.247 221.524 306.544 256.781 279.289 283.027C252.145 309.236 216.439 323.631 178.79 323.631ZM178.603 52.4552C110.257 52.4552 54.8856 105.995 52.5302 174.34C50.0999 243.919 104.761 302.469 174.303 304.899C175.799 304.937 177.294 304.974 178.752 304.974C247.098 304.974 302.469 251.434 304.825 183.089C307.255 113.51 252.594 54.9602 183.052 52.53C181.594 52.4926 180.098 52.4552 178.603 52.4552Z" fill="#FACC15"/>
<path d="M178.715 357.43C154.6 357.43 131.195 352.719 109.136 343.372C87.8618 334.361 68.7566 321.5 52.3432 305.086C35.9299 288.673 23.0311 269.568 14.0579 248.294C4.74832 226.235 0 202.83 0 178.715C0 154.6 4.71093 131.195 14.0579 109.136C23.0685 87.8618 35.9299 68.7566 52.3432 52.3432C68.7566 35.9299 87.8618 23.0311 109.136 14.0579C131.195 4.74832 154.6 0 178.715 0C202.83 0 226.235 4.71093 248.294 14.0579C269.568 23.0685 288.673 35.9299 305.086 52.3432C321.5 68.7566 334.399 87.8618 343.372 109.136C352.681 131.195 357.43 154.6 357.43 178.715C357.43 202.83 352.719 226.235 343.372 248.294C334.361 269.568 321.5 288.673 305.086 305.086C288.673 321.5 269.568 334.399 248.294 343.372C226.235 352.719 202.83 357.43 178.715 357.43ZM178.715 18.6566C90.479 18.6566 18.694 90.4416 18.694 178.677C18.694 266.913 90.479 338.698 178.715 338.698C266.951 338.698 338.736 266.913 338.736 178.677C338.736 90.479 266.951 18.6566 178.715 18.6566Z" fill="#FACC15"/>
</svg>
