<svg width="1011" height="821" viewBox="0 0 1011 821" fill="none" xmlns="http://www.w3.org/2000/svg">
<path d="M506.368 669.241C728.569 669.241 908.699 553.171 908.699 409.992C908.699 266.814 728.569 150.744 506.368 150.744C284.166 150.744 104.037 266.814 104.037 409.992C104.037 553.171 284.166 669.241 506.368 669.241Z" stroke="#231F20" stroke-width="3.62139" stroke-miterlimit="10"/>
<path d="M620.738 642.79C820.185 544.822 930.695 361.219 867.567 232.701C804.44 104.184 591.58 79.4191 392.132 177.388C192.684 275.356 82.175 458.959 145.303 587.477C208.43 715.994 421.29 740.759 620.738 642.79Z" stroke="#231F20" stroke-width="3.62139" stroke-miterlimit="10"/>
<g clip-path="url(#clip0_46_12)">
<rect y="501.622" width="298" height="106" rx="53" transform="rotate(-32.8442 0 501.622)" fill="#D4FFC5"/>
<path d="M107.222 521.675L89.9179 484.14L92.2367 482.643L109.49 520.211L107.222 521.675ZM85.3966 519.838L84.0624 517.772L108.712 501.859L110.047 503.926L85.3966 519.838ZM96.5852 528.541L79.3321 490.973L81.6005 489.509L98.8536 527.077L96.5852 528.541ZM80.1224 508.46L78.7882 506.393L103.438 490.481L104.772 492.547L80.1224 508.46ZM137.778 502.664C136.031 503.792 134.19 504.48 132.255 504.729C130.355 504.956 128.516 504.763 126.739 504.148C124.94 503.5 123.347 502.434 121.959 500.949L117.013 493.287C116.209 491.378 115.893 489.487 116.065 487.614C116.249 485.686 116.846 483.92 117.857 482.315C118.902 480.688 120.282 479.322 121.995 478.215C124.213 476.783 126.543 476.041 128.985 475.988C131.427 475.936 133.748 476.508 135.95 477.706C138.151 478.903 140 480.661 141.497 482.98C142.994 485.299 143.835 487.708 144.02 490.207C144.183 492.673 143.738 495.007 142.685 497.211C141.632 499.414 139.996 501.232 137.778 502.664ZM135.762 500.537C137.611 499.344 138.969 497.871 139.839 496.12C140.708 494.369 141.068 492.493 140.92 490.494C140.772 488.495 140.08 486.537 138.843 484.622C137.607 482.706 136.108 481.27 134.347 480.312C132.586 479.354 130.739 478.927 128.807 479.031C126.887 479.081 125.036 479.68 123.255 480.83C121.44 482.002 120.115 483.452 119.28 485.182C118.456 486.856 118.135 488.682 118.317 490.66C118.498 492.637 119.218 494.601 120.477 496.55C121.713 498.465 123.178 499.924 124.872 500.925C126.578 501.871 128.374 502.331 130.261 502.303C132.181 502.254 134.015 501.665 135.762 500.537ZM131.967 519.77L110.424 486.399L112.995 484.739L116.77 490.587L119.842 496.674L124.157 502.03L134.538 518.11L131.967 519.77ZM165.852 484.541C163.6 485.994 161.22 486.769 158.711 486.865C156.235 486.94 153.891 486.406 151.678 485.264C149.443 484.088 147.577 482.34 146.08 480.022C144.605 477.736 143.791 475.333 143.64 472.813C143.489 470.292 143.956 467.919 145.043 465.693C146.109 463.435 147.75 461.589 149.968 460.158C151.783 458.986 153.624 458.298 155.491 458.092C157.37 457.831 159.164 458.03 160.874 458.688C162.618 459.324 164.177 460.412 165.553 461.952L170.499 469.614C171.303 471.523 171.647 473.42 171.53 475.305C171.425 477.134 170.895 478.857 169.939 480.474C168.995 482.035 167.633 483.391 165.852 484.541ZM164.642 481.893C167.331 480.158 168.89 477.89 169.32 475.089C169.761 472.233 169.038 469.343 167.151 466.419C165.871 464.437 164.395 462.961 162.723 461.994C161.062 460.97 159.3 460.49 157.435 460.551C155.548 460.578 153.714 461.167 151.933 462.317C150.085 463.51 148.71 464.993 147.807 466.766C146.938 468.517 146.56 470.404 146.675 472.425C146.823 474.424 147.504 476.365 148.719 478.247C149.956 480.162 151.455 481.599 153.216 482.557C155.01 483.493 156.901 483.915 158.889 483.822C160.876 483.73 162.794 483.087 164.642 481.893ZM174.6 478.179L170.532 471.878L167.377 465.774L163.145 460.435L159.468 454.739L162.039 453.08L177.171 476.52L174.6 478.179ZM192.06 467.622C190.783 468.446 189.464 469.059 188.105 469.461C186.757 469.807 185.407 469.965 184.054 469.934C182.734 469.881 181.45 469.662 180.202 469.278L180.81 466.457C182.553 467.093 184.242 467.312 185.876 467.115C187.522 466.862 189.101 466.247 190.613 465.271C192.361 464.143 193.511 462.9 194.063 461.544C194.616 460.187 194.48 458.87 193.656 457.593C192.918 456.451 192.024 455.766 190.973 455.54C189.901 455.28 188.725 455.302 187.444 455.604C186.197 455.886 184.894 456.227 183.535 456.628C182.209 457.008 180.873 457.299 179.527 457.501C178.215 457.682 176.969 457.558 175.788 457.13C174.607 456.702 173.561 455.782 172.65 454.371C171.848 453.127 171.462 451.829 171.493 450.476C171.524 449.123 171.948 447.825 172.765 446.584C173.594 445.287 174.799 444.128 176.378 443.109C178.126 441.981 179.883 441.274 181.652 440.99C183.454 440.683 185.154 440.847 186.754 441.481L186.197 444.269C184.917 443.762 183.543 443.625 182.075 443.858C180.586 444.058 179.135 444.614 177.724 445.525C176.043 446.61 174.994 447.787 174.576 449.057C174.158 450.327 174.307 451.516 175.023 452.625C175.695 453.667 176.546 454.284 177.575 454.477C178.604 454.669 179.731 454.608 180.956 454.294C182.215 453.957 183.507 453.599 184.833 453.219C186.171 452.784 187.507 452.493 188.84 452.346C190.207 452.178 191.492 452.324 192.695 452.786C193.897 453.248 194.987 454.235 195.963 455.747C197.265 457.763 197.567 459.854 196.869 462.018C196.15 464.149 194.547 466.017 192.06 467.622ZM208.397 471.145C207.187 471.926 205.954 472.412 204.697 472.604C203.463 472.83 202.215 472.779 200.955 472.449L201.595 469.679C202.557 469.915 203.461 469.951 204.306 469.786C205.174 469.655 205.994 469.339 206.767 468.84C208.044 468.016 208.881 466.952 209.277 465.649C209.674 464.345 209.351 462.887 208.31 461.274L190.965 434.406L193.536 432.746L210.848 459.564C211.846 461.11 212.345 462.621 212.346 464.096C212.38 465.55 212.032 466.893 211.304 468.125C210.61 469.335 209.64 470.342 208.397 471.145ZM188.711 428.148C188.14 428.517 187.539 428.619 186.909 428.455C186.257 428.256 185.747 427.872 185.378 427.3C185.009 426.729 184.891 426.139 185.022 425.531C185.131 424.889 185.471 424.384 186.043 424.015C186.647 423.624 187.265 423.511 187.895 423.676C188.537 423.785 189.042 424.126 189.411 424.697C189.78 425.268 189.904 425.903 189.782 426.6C189.673 427.242 189.316 427.758 188.711 428.148ZM226.943 445.103C224.691 446.557 222.311 447.332 219.802 447.428C217.327 447.502 214.982 446.968 212.769 445.826C210.534 444.65 208.668 442.903 207.171 440.584C205.696 438.299 204.883 435.896 204.731 433.375C204.58 430.854 205.048 428.481 206.135 426.256C207.2 423.997 208.841 422.152 211.059 420.72C212.874 419.549 214.715 418.86 216.582 418.655C218.461 418.394 220.255 418.593 221.965 419.25C223.709 419.886 225.269 420.974 226.644 422.515L231.59 430.177C232.394 432.086 232.738 433.983 232.621 435.867C232.517 437.696 231.986 439.419 231.03 441.036C230.086 442.598 228.724 443.954 226.943 445.103ZM225.734 442.456C228.422 440.72 229.981 438.452 230.411 435.652C230.852 432.796 230.13 429.906 228.242 426.982C226.962 424.999 225.486 423.524 223.814 422.556C222.154 421.533 220.391 421.052 218.526 421.113C216.64 421.141 214.806 421.73 213.025 422.879C211.176 424.073 209.801 425.556 208.898 427.329C208.029 429.08 207.652 430.966 207.766 432.987C207.914 434.987 208.595 436.927 209.81 438.809C211.047 440.725 212.546 442.161 214.307 443.119C216.102 444.056 217.993 444.478 219.98 444.385C221.967 444.292 223.885 443.649 225.734 442.456ZM235.691 438.742L231.623 432.441L228.468 426.336L224.236 420.998L220.559 415.302L223.13 413.642L238.262 437.082L235.691 438.742Z" fill="black"/>
</g>
<g clip-path="url(#clip1_46_12)">
<rect x="738.868" y="140" width="327" height="106" rx="53" transform="rotate(33.7354 738.868 140)" fill="#C5FFE6"/>
<path d="M763.108 246.374L790.673 215.577L792.968 217.109L765.353 247.873L763.108 246.374ZM756.118 225.617L757.484 223.571L781.884 239.866L780.518 241.911L756.118 225.617ZM752.579 239.343L780.194 208.579L782.44 210.079L754.825 240.843L752.579 239.343ZM764.463 216.255L765.829 214.209L790.228 230.503L788.862 232.549L764.463 216.255ZM781.256 258.494L796.75 235.292L799.295 236.991L783.801 260.193L781.256 258.494ZM793.064 246.322L792.116 245.04C794.094 242.079 796.375 240.284 798.96 239.653C801.568 238.99 804.086 239.469 806.514 241.09C807.645 241.846 808.56 242.745 809.258 243.788C809.989 244.854 810.471 246.114 810.702 247.567L807.806 248.23C807.641 247.11 807.292 246.155 806.76 245.367C806.228 244.579 805.463 243.852 804.466 243.186C802.569 241.919 800.589 241.535 798.526 242.033C796.484 242.497 794.663 243.927 793.064 246.322ZM810.065 278.454C807.803 276.943 806.112 275.045 804.994 272.759C803.93 270.461 803.477 268.042 803.635 265.502C803.814 262.928 804.659 260.511 806.17 258.249C807.681 255.987 809.568 254.313 811.832 253.228C814.118 252.109 816.515 251.617 819.022 251.752C821.562 251.909 823.964 252.743 826.226 254.254C828.454 255.742 830.111 257.619 831.197 259.883C832.315 262.169 832.796 264.582 832.639 267.123C832.504 269.63 831.681 272.014 830.17 274.276C828.637 276.572 826.728 278.278 824.442 279.397C822.155 280.516 819.731 281.013 817.168 280.889C814.661 280.754 812.293 279.942 810.065 278.454ZM811.664 276.059C813.427 277.236 815.296 277.859 817.271 277.927C819.279 278.017 821.17 277.597 822.946 276.667C824.777 275.725 826.315 274.323 827.559 272.46C828.781 270.631 829.454 268.723 829.577 266.737C829.734 264.774 829.375 262.899 828.5 261.112C827.68 259.314 826.389 257.826 824.626 256.649C822.83 255.449 820.928 254.805 818.92 254.714C816.967 254.613 815.098 255 813.311 255.875C811.524 256.75 810.009 258.119 808.765 259.981C807.521 261.844 806.826 263.785 806.68 265.804C806.534 267.823 806.871 269.731 807.69 271.529C808.543 273.349 809.868 274.859 811.664 276.059ZM826.433 286.643L855.529 276.565L858.523 278.564L829.427 288.642L826.433 286.643ZM825.5 288.04L826.433 286.643L828.995 287.128L845.212 297.957L843.712 300.203L825.5 288.04ZM840.293 267.617L841.793 265.371L859.456 277.167L858.523 278.564L855.562 277.813L840.293 267.617ZM855.861 308.316L862.573 279.249L865.218 281.015L858.957 306.487L857.86 305.754L878.989 290.212L880.486 291.211L874.226 316.684L873.128 315.951L894.258 300.408L896.902 302.174L872.676 319.545L871.129 318.512L877.323 292.923L878.67 293.823L857.358 309.315L855.861 308.316ZM895.825 335.725C893.563 334.215 891.872 332.316 890.754 330.03C889.69 327.733 889.237 325.314 889.395 322.773C889.574 320.2 890.419 317.782 891.93 315.52C893.44 313.258 895.328 311.584 897.592 310.499C899.878 309.38 902.275 308.888 904.782 309.024C907.322 309.181 909.723 310.015 911.985 311.525C914.214 313.014 915.871 314.89 916.957 317.154C918.075 319.44 918.556 321.854 918.399 324.394C918.264 326.901 917.441 329.286 915.93 331.548C914.397 333.843 912.488 335.55 910.202 336.669C907.915 337.787 905.491 338.285 902.928 338.16C900.421 338.025 898.053 337.214 895.825 335.725ZM897.424 333.33C899.187 334.508 901.056 335.13 903.03 335.198C905.038 335.289 906.93 334.869 908.706 333.938C910.537 332.997 912.075 331.595 913.319 329.732C914.541 327.902 915.213 325.995 915.337 324.009C915.494 322.045 915.135 320.17 914.26 318.383C913.44 316.585 912.149 315.098 910.386 313.92C908.59 312.721 906.688 312.076 904.68 311.986C902.727 311.884 900.858 312.271 899.071 313.146C897.284 314.021 895.768 315.39 894.524 317.253C893.28 319.116 892.586 321.056 892.44 323.075C892.294 325.094 892.631 327.003 893.45 328.801C894.303 330.621 895.628 332.131 897.424 333.33ZM910.858 306.083L910.494 304.252L922.461 300.917L923.107 304.379L910.858 306.083ZM903.046 354.761C901.849 353.962 900.912 353.023 900.236 351.947C899.538 350.903 899.089 349.738 898.891 348.451L901.687 347.937C901.853 348.914 902.179 349.757 902.667 350.468C903.132 351.211 903.747 351.839 904.512 352.349C905.776 353.194 907.085 353.539 908.439 353.384C909.792 353.23 911.002 352.355 912.069 350.758L929.829 324.163L932.374 325.862L914.647 352.407C913.625 353.938 912.437 354.996 911.083 355.583C909.762 356.192 908.392 356.407 906.972 356.229C905.586 356.072 904.277 355.583 903.046 354.761ZM934.675 319.607C934.11 319.23 933.777 318.719 933.678 318.075C933.601 317.399 933.751 316.777 934.129 316.212C934.506 315.647 935 315.303 935.611 315.181C936.243 315.027 936.842 315.138 937.408 315.516C938.006 315.916 938.355 316.437 938.455 317.081C938.61 317.713 938.498 318.312 938.12 318.878C937.743 319.443 937.21 319.809 936.522 319.975C935.89 320.13 935.274 320.007 934.675 319.607Z" fill="black"/>
</g>
<rect x="363" y="591" width="435" height="106" rx="53" fill="#FFC5DA"/>
<path d="M442.327 666L448.147 625.08H450.907L445.027 666H442.327ZM424.987 652.62V650.16H454.327V652.62H424.987ZM429.667 666L435.547 625.08H438.247L432.367 666H429.667ZM426.727 640.2V637.74H456.067V640.2H426.727ZM476.81 666.6C474.09 666.6 471.63 665.96 469.43 664.68C467.27 663.36 465.55 661.6 464.27 659.4C462.99 657.16 462.35 654.68 462.35 651.96C462.35 649.24 462.99 646.8 464.27 644.64C465.55 642.44 467.27 640.7 469.43 639.42C471.63 638.14 474.09 637.5 476.81 637.5C478.85 637.5 480.77 637.88 482.57 638.64C484.37 639.4 485.91 640.48 487.19 641.88L485.15 643.92C484.11 642.8 482.87 641.94 481.43 641.34C480.03 640.7 478.49 640.38 476.81 640.38C474.65 640.38 472.71 640.9 470.99 641.94C469.31 642.94 467.97 644.3 466.97 646.02C465.97 647.74 465.47 649.72 465.47 651.96C465.47 654.2 465.97 656.2 466.97 657.96C467.97 659.72 469.31 661.12 470.99 662.16C472.71 663.2 474.65 663.72 476.81 663.72C478.49 663.72 480.05 663.42 481.49 662.82C482.97 662.18 484.23 661.28 485.27 660.12L487.31 662.16C485.99 663.56 484.41 664.66 482.57 665.46C480.77 666.22 478.85 666.6 476.81 666.6ZM506.053 666.6C503.293 666.6 500.793 665.96 498.553 664.68C496.353 663.4 494.613 661.66 493.333 659.46C492.053 657.26 491.413 654.78 491.413 652.02C491.413 649.26 492.033 646.8 493.273 644.64C494.513 642.44 496.213 640.7 498.373 639.42C500.573 638.14 503.013 637.5 505.693 637.5C508.253 637.5 510.493 638.08 512.413 639.24C514.373 640.36 515.893 641.92 516.973 643.92C518.093 645.92 518.653 648.22 518.653 650.82C518.653 651.06 518.633 651.38 518.593 651.78C518.553 652.14 518.493 652.6 518.413 653.16H493.573V650.52H516.673L515.653 651.36C515.733 649.16 515.373 647.24 514.573 645.6C513.773 643.92 512.613 642.62 511.093 641.7C509.573 640.78 507.753 640.32 505.633 640.32C503.433 640.32 501.493 640.82 499.813 641.82C498.133 642.78 496.813 644.12 495.853 645.84C494.933 647.56 494.473 649.56 494.473 651.84C494.473 654.24 494.953 656.34 495.913 658.14C496.913 659.9 498.293 661.28 500.053 662.28C501.813 663.24 503.873 663.72 506.233 663.72C508.033 663.72 509.693 663.4 511.213 662.76C512.773 662.08 514.073 661.08 515.113 659.76L517.153 661.74C515.873 663.26 514.253 664.46 512.293 665.34C510.373 666.18 508.293 666.6 506.053 666.6ZM525.615 666V638.1H528.675V666H525.615ZM528.675 649.32L527.175 648.78C527.175 645.22 528.075 642.46 529.875 640.5C531.675 638.5 534.035 637.5 536.955 637.5C538.315 637.5 539.575 637.74 540.735 638.22C541.935 638.7 543.035 639.48 544.035 640.56L541.995 642.72C541.235 641.88 540.415 641.28 539.535 640.92C538.655 640.56 537.615 640.38 536.415 640.38C534.135 640.38 532.275 641.16 530.835 642.72C529.395 644.24 528.675 646.44 528.675 649.32ZM552.964 666V626.28H556.024V666H552.964ZM545.764 640.8V638.1H563.224V640.8H545.764ZM578.925 666.06L566.505 638.1H569.865L580.605 662.88H579.045L590.265 638.1H593.625L580.485 666.06H578.925ZM571.665 677.82L578.865 663.06L580.485 666.06L574.965 677.82H571.665ZM603.588 666V632.52C603.588 630.72 603.968 629.14 604.728 627.78C605.488 626.38 606.548 625.3 607.908 624.54C609.308 623.74 610.888 623.34 612.648 623.34C613.968 623.34 615.168 623.58 616.248 624.06C617.368 624.5 618.348 625.16 619.188 626.04L617.208 628.02C616.528 627.34 615.808 626.86 615.048 626.58C614.288 626.26 613.468 626.1 612.588 626.1C610.708 626.1 609.248 626.7 608.208 627.9C607.168 629.1 606.648 630.7 606.648 632.7V666H603.588ZM596.328 640.8V638.1H621.348V640.8H596.328ZM619.668 666V638.1H622.728V666H619.668ZM621.168 634.2C620.488 634.2 619.908 633.96 619.428 633.48C618.988 632.96 618.768 632.36 618.768 631.68C618.768 631 618.988 630.44 619.428 630C619.908 629.52 620.488 629.28 621.168 629.28C621.888 629.28 622.468 629.52 622.908 630C623.388 630.44 623.628 631 623.628 631.68C623.628 632.36 623.388 632.96 622.908 633.48C622.468 633.96 621.888 634.2 621.168 634.2ZM649.967 666L634.427 651.66L649.667 638.1H653.567L637.367 652.44L637.427 650.7L654.107 666H649.967ZM631.787 666V623.88H634.847V666H631.787ZM670.397 666.6C667.717 666.6 665.297 665.96 663.137 664.68C661.017 663.4 659.337 661.68 658.097 659.52C656.857 657.32 656.237 654.84 656.237 652.08C656.237 649.36 656.857 646.9 658.097 644.7C659.337 642.5 661.017 640.76 663.137 639.48C665.257 638.16 667.637 637.5 670.277 637.5C672.437 637.5 674.357 637.92 676.037 638.76C677.757 639.56 679.157 640.7 680.237 642.18C681.357 643.66 682.077 645.42 682.397 647.46V656.58C682.037 658.62 681.297 660.4 680.177 661.92C679.097 663.4 677.717 664.56 676.037 665.4C674.397 666.2 672.517 666.6 670.397 666.6ZM670.817 663.72C674.017 663.72 676.557 662.66 678.437 660.54C680.357 658.38 681.317 655.56 681.317 652.08C681.317 649.72 680.877 647.68 679.997 645.96C679.157 644.2 677.937 642.84 676.337 641.88C674.737 640.88 672.877 640.38 670.757 640.38C668.557 640.38 666.597 640.88 664.877 641.88C663.197 642.88 661.857 644.26 660.857 646.02C659.897 647.78 659.417 649.78 659.417 652.02C659.417 654.3 659.897 656.32 660.857 658.08C661.857 659.84 663.217 661.22 664.937 662.22C666.657 663.22 668.617 663.72 670.817 663.72ZM681.197 666V658.5L681.857 651.66L681.197 644.88V638.1H684.257V666H681.197ZM697.28 666V626.28H700.34V666H697.28ZM690.08 640.8V638.1H707.54V640.8H690.08ZM723.241 666.06L710.821 638.1H714.181L724.921 662.88H723.361L734.581 638.1H737.941L724.801 666.06H723.241ZM715.981 677.82L723.181 663.06L724.801 666.06L719.281 677.82H715.981Z" fill="black"/>
<defs>
<clipPath id="clip0_46_12">
<rect y="501.622" width="298" height="106" rx="53" transform="rotate(-32.8442 0 501.622)" fill="white"/>
</clipPath>
<clipPath id="clip1_46_12">
<rect x="738.868" y="140" width="327" height="106" rx="53" transform="rotate(33.7354 738.868 140)" fill="white"/>
</clipPath>
</defs>
</svg>
