<svg width="366" height="346" viewBox="0 0 366 346" fill="none" xmlns="http://www.w3.org/2000/svg">
<path d="M168.721 3.98708C169.186 11.0747 169.083 18.214 168.41 25.2498C168.307 26.1293 168.255 27.0088 168.1 27.8365C168.048 28.2504 167.996 28.6643 167.945 29.0782C167.893 29.699 168.1 28.0952 167.945 29.0264C167.893 29.2851 167.893 29.5955 167.841 29.8542C167.582 31.6131 167.272 33.3721 166.962 35.131C166.289 38.649 165.41 42.1669 164.375 45.5814C163.858 47.1852 163.34 48.7889 162.771 50.3926C162.461 51.1687 162.202 51.9447 161.84 52.7207C161.788 52.8759 161.581 53.1346 161.581 53.3415C161.581 52.8242 161.892 52.669 161.685 53.0311C161.478 53.445 161.323 53.8588 161.116 54.2727C159.874 57.0146 158.374 59.6531 156.718 62.1363C156.356 62.7054 155.942 63.2745 155.528 63.8435C155.322 64.1539 155.063 64.4644 154.856 64.7748C154.752 64.8782 154.649 65.0334 154.597 65.1369C155.114 64.2057 154.804 64.8782 154.649 65.0852C153.718 66.2751 152.683 67.465 151.648 68.6031C150.614 69.6895 149.579 70.7242 148.441 71.7589C147.923 72.2245 147.355 72.6901 146.785 73.1557C146.527 73.3626 146.268 73.5696 146.009 73.7765C145.596 74.0869 146.785 73.1557 146.165 73.673C145.958 73.8282 145.802 73.9317 145.595 74.0869C144.25 75.0699 142.853 76.0011 141.405 76.8289C139.956 77.6566 138.456 78.2774 136.956 79.0534C137.008 79.0017 137.835 78.6913 137.266 78.8982C137.059 79.0017 136.852 79.0534 136.645 79.1569C136.232 79.3121 135.818 79.4673 135.352 79.6225C134.576 79.8811 133.8 80.1398 132.972 80.3468C131.369 80.8124 129.713 81.1228 128.058 81.3297C127.178 81.4332 126.143 82.3644 125.73 83.0887C125.316 83.8647 125.16 84.6924 125.264 85.5719C125.523 87.4343 127.126 88.9346 129.092 88.9346C132.869 88.8829 136.645 88.8829 140.422 89.1416C141.301 89.1933 142.129 89.2968 143.009 89.4002C143.06 89.4002 143.992 89.5554 143.371 89.452C142.698 89.3485 143.629 89.5037 143.733 89.5037C144.199 89.5555 144.664 89.659 145.13 89.7624C146.992 90.1246 148.803 90.5901 150.562 91.1592C150.872 91.2627 151.234 91.4179 151.545 91.5213C151.7 91.5731 151.907 91.6765 152.062 91.7283C152.373 91.8318 152.683 92.1422 151.855 91.6248C152.476 92.0387 153.252 92.2457 153.925 92.6078C155.218 93.2803 156.46 94.0046 157.598 94.8323C157.908 95.0393 158.219 95.2462 158.529 95.5049C158.632 95.6084 158.788 95.7118 158.891 95.7636C159.409 96.1257 158.684 95.6084 158.633 95.5566C159.15 96.074 159.822 96.5396 160.391 97.0052C161.53 98.0399 162.616 99.0746 163.651 100.213C164.116 100.73 164.582 101.247 164.996 101.765C165.203 102.023 165.41 102.282 165.668 102.592C165.979 103.006 165.099 101.816 165.565 102.437C165.72 102.644 165.823 102.799 165.979 103.006C166.858 104.196 167.634 105.438 168.41 106.679C169.186 107.973 169.911 109.318 170.583 110.663C170.894 111.336 171.204 112.008 171.514 112.681C171.566 112.836 171.618 112.991 171.721 113.095C171.307 112.112 171.566 112.681 171.669 112.939C171.825 113.353 171.98 113.715 172.135 114.129C173.325 117.233 174.204 120.389 174.877 123.597C175.084 124.528 175.239 125.407 175.394 126.338C175.446 126.701 175.498 127.114 175.601 127.477C175.653 127.787 175.705 128.046 175.705 128.356C175.705 128.201 175.653 128.046 175.653 127.891C175.653 128.097 175.705 128.253 175.705 128.46C175.912 130.322 176.119 132.133 176.222 133.995C176.791 142.531 176.274 151.119 175.705 159.604C175.601 161.518 177.257 163.173 179.068 163.432C180.982 163.691 182.741 162.501 183.31 160.638C187.397 147.653 187.914 133.943 190.966 120.751C191.639 117.802 192.415 114.853 193.45 111.956C193.656 111.336 193.915 110.715 194.122 110.146C194.226 109.835 194.433 109.525 194.536 109.163C194.536 109.214 194.174 110.042 194.432 109.473C194.484 109.318 194.588 109.111 194.64 108.956C195.209 107.714 195.778 106.524 196.398 105.334C197.64 102.955 199.089 100.678 200.692 98.5572C200.796 98.4538 200.899 98.2985 200.951 98.1951C200.434 98.9711 200.589 98.6607 200.744 98.4537C200.951 98.1951 201.158 97.9364 201.365 97.6777C201.779 97.1604 202.244 96.643 202.71 96.1257C203.589 95.1427 204.521 94.2116 205.452 93.3838C206.021 92.8665 206.538 92.4008 207.159 91.9352C207.263 91.8318 207.366 91.78 207.521 91.6766C206.59 92.4008 207.263 91.8835 207.418 91.7283C207.728 91.5213 207.987 91.3144 208.297 91.1075C209.436 90.3315 210.625 89.6072 211.867 88.9864C212.177 88.8312 212.539 88.676 212.85 88.5208C213.005 88.4691 213.109 88.4173 213.264 88.3656C213.988 88.0552 212.488 88.676 213.16 88.4173C213.833 88.1586 214.505 87.9 215.23 87.6931C215.954 87.4861 216.627 87.2791 217.351 87.1239C217.661 87.0722 218.023 86.9688 218.334 86.917C218.644 86.8653 220.093 86.6583 218.748 86.8135C219.782 86.6583 220.765 86.5032 221.49 85.6754C222.059 85.0546 222.421 84.3303 222.576 83.4508C222.835 81.6918 221.696 79.5708 219.782 79.2086C218.282 78.8982 216.782 78.536 215.281 78.0704C214.609 77.8635 213.988 77.6049 213.315 77.3979C212.953 77.2427 212.591 77.0875 212.229 76.984C213.419 77.4496 212.074 76.8806 211.763 76.7771C209.021 75.4837 206.383 73.9317 203.952 72.121C203.848 72.0175 203.693 71.9141 203.589 71.8623C203.072 71.4485 203.796 72.0175 203.848 72.0693C203.589 71.8106 203.227 71.6037 202.917 71.345C202.296 70.8276 201.727 70.3621 201.158 69.8448C200.02 68.8101 198.882 67.7236 197.847 66.5337C196.812 65.3956 195.829 64.2574 194.846 63.0675C194.743 62.9123 194.639 62.7572 194.484 62.602C194.536 62.6537 195.053 63.3262 194.64 62.8088C194.381 62.4984 194.174 62.1881 193.915 61.8777C193.449 61.2569 192.984 60.5843 192.57 59.9635C190.863 57.4285 189.363 54.7384 188.017 51.9964C187.707 51.3239 187.397 50.7031 187.086 50.0305C186.983 49.8753 186.931 49.6684 186.879 49.5132C186.621 48.9441 186.983 49.7201 186.983 49.7719C186.828 49.3062 186.621 48.8924 186.465 48.4785C185.896 47.0817 185.379 45.6331 184.862 44.1845C182.689 37.8212 181.085 31.251 179.792 24.629C179.067 20.9559 178.395 17.231 177.826 13.5062C177.567 11.7472 177.309 10.04 177.05 8.28104C176.946 7.40156 176.791 6.57381 176.688 5.69433C176.636 5.38393 176.429 3.93535 176.636 5.22871C176.584 4.7631 176.533 4.34924 176.481 3.88363C176.326 2.79721 176.119 1.91771 175.343 1.14169C174.67 0.46915 173.584 -0.0481669 172.601 0.00356735C171.618 0.0553016 170.531 0.365682 169.859 1.14169C169.186 1.96944 168.565 3.00413 168.721 3.98708C170.531 17.5932 172.601 31.3544 176.791 44.4432C180.827 56.9111 187.397 68.8101 197.692 77.1393C203.538 81.8471 210.263 85.4684 217.661 86.8653C218.023 84.3303 218.334 81.7953 218.696 79.2604C215.488 79.6742 212.54 80.502 209.539 81.7953C206.9 82.9335 204.469 84.4855 202.193 86.2962C197.743 89.7624 194.07 94.2633 191.173 99.0746C188.121 104.093 185.896 109.628 184.396 115.319C182.585 122.045 181.551 128.977 180.516 135.858C179.378 143.618 178.188 151.378 175.808 158.879C178.343 159.241 180.878 159.552 183.413 159.914C184.396 144.601 185.276 128.563 180.102 113.819C175.808 101.506 167.375 89.9693 155.114 84.7959C146.889 81.3297 137.887 81.2263 129.092 81.3297C129.454 83.8647 129.765 86.3996 130.127 88.9346C143.164 87.1239 154.287 78.6913 161.892 68.3444C170.324 56.8595 173.998 42.4256 175.757 28.4574C176.791 20.3351 176.998 12.1611 176.429 4.0388C176.274 2.02116 174.722 0.0552637 172.549 0.158732C170.583 0.210466 168.565 1.81424 168.721 3.98708Z" fill="#231F20"/>
<path d="M25.0539 109.163C25.9334 113.043 26.7094 116.975 27.382 120.906C27.7441 122.821 28.0547 124.735 28.3133 126.649C28.4685 127.632 28.6236 128.563 28.7271 129.546C28.7788 129.96 28.8305 130.426 28.8822 130.839C28.9857 131.564 28.8822 130.891 28.8822 130.788C28.9339 131.098 28.9858 131.408 28.9858 131.771C30.0205 139.582 30.6412 147.394 30.9516 155.258C31.1068 158.621 31.107 161.932 30.9 165.294C30.8483 166.07 30.7964 166.846 30.6929 167.622C30.6412 168.036 30.5895 168.45 30.5378 168.864C30.4861 169.278 30.6413 169.588 30.5378 168.761C30.5895 169.019 30.4342 169.33 30.4342 169.588C30.1756 171.192 29.8652 172.744 29.3996 174.296C29.1926 175.072 28.934 175.796 28.6753 176.572C28.5719 176.883 28.3651 177.245 28.3133 177.555C28.5203 176.779 28.5201 177.142 28.4167 177.348C28.3132 177.607 28.2097 177.814 28.1062 178.073C27.3819 179.573 26.5542 180.97 25.5713 182.315C25.3126 182.625 25.1057 182.987 24.847 183.298C24.8988 183.194 25.3645 182.625 24.9506 183.143C24.8471 183.298 24.7436 183.453 24.5884 183.557C24.071 184.229 23.5019 184.902 22.9328 185.574C21.8464 186.816 20.6566 188.057 19.4667 189.247C18.1734 190.541 16.8281 191.731 15.4313 192.92C14.707 193.541 13.9829 194.162 13.2068 194.731C13.0516 194.886 12.8447 195.042 12.6895 195.145C12.586 195.197 11.9652 195.714 12.4308 195.352C12.9482 194.99 12.2239 195.507 12.1722 195.559C11.9652 195.714 11.7067 195.869 11.4997 196.076C8.39567 198.353 5.18815 200.474 1.92889 202.491C0.53207 203.371 -0.399348 205.233 0.169729 206.889C0.687071 208.441 2.18746 209.838 3.89469 209.734C7.15395 209.527 10.4132 209.372 13.7242 209.527C15.897 209.631 18.0699 209.838 20.191 210.096C21.3809 210.2 22.5189 210.303 23.7088 210.407C24.0709 210.407 24.4331 210.458 24.7953 210.51C24.8987 210.51 24.9505 210.51 25.0539 210.562C25.4678 210.614 25.3643 210.614 24.7435 210.51C24.8469 210.562 25.1058 210.562 25.2093 210.562C26.037 210.717 26.8647 210.872 27.6924 211.131C28.4167 211.338 29.141 211.597 29.8136 211.855C30.0205 211.907 30.1758 212.01 30.3827 212.062C30.9 212.269 29.4513 211.648 30.2274 212.01C30.6412 212.217 31.0035 212.372 31.4174 212.579C32.8659 213.304 34.211 214.131 35.5043 215.063C35.6595 215.166 35.8147 215.321 35.9699 215.425C36.539 215.839 35.8147 215.321 35.763 215.27C35.9182 215.528 36.4872 215.839 36.6941 216.046C37.3667 216.615 37.9876 217.184 38.6084 217.753C39.7983 218.891 40.9882 220.133 42.0229 221.374C42.5402 221.995 43.0575 222.616 43.5231 223.237C44.0922 223.961 43.0058 222.512 43.5231 223.237C43.6266 223.392 43.7301 223.495 43.8336 223.651C44.144 224.064 44.4543 224.478 44.7129 224.892C45.6959 226.289 46.627 227.686 47.5065 229.134C49.4207 232.29 51.1798 235.601 52.7835 238.912C53.663 240.723 54.5425 242.585 55.3702 244.396C55.5772 244.81 55.7324 245.224 55.9394 245.638C56.0428 245.845 56.1463 246.103 56.2498 246.31C56.5085 246.983 56.2498 246.362 56.198 246.207C56.6636 247.241 57.0257 248.276 57.4396 249.311C60.8023 257.795 63.389 266.538 65.1997 275.488C65.5619 277.402 67.6831 278.489 69.442 278.282C71.5114 278.023 72.5978 276.42 72.8048 274.454C74.6154 258.882 70.6835 243.413 71.6147 227.789C71.6664 226.548 71.8217 225.306 71.9252 224.116C71.9769 223.806 72.0287 223.495 72.0287 223.185C72.0805 222.668 71.8735 224.271 71.977 223.495C71.977 223.34 72.0287 223.237 72.0287 223.081C72.1322 222.409 72.2355 221.736 72.3389 221.064C72.8046 218.425 73.4254 215.787 74.1496 213.252C74.5635 211.907 74.9774 210.562 75.443 209.217C75.6499 208.596 75.857 208.027 76.1157 207.458C76.2192 207.147 76.3742 206.837 76.4777 206.527C76.7363 205.957 76.3743 206.785 76.3226 206.837C76.426 206.63 76.4778 206.423 76.5812 206.216C77.6677 203.785 78.9092 201.405 80.4095 199.18C80.7717 198.611 81.1857 198.042 81.5996 197.473C81.6513 197.37 82.1167 196.801 81.6511 197.37C81.2372 197.939 81.703 197.318 81.8065 197.214C82.0134 196.956 82.2202 196.697 82.4789 196.438C83.3584 195.404 84.3414 194.421 85.3761 193.541C85.6347 193.283 85.9452 193.076 86.2039 192.869C86.566 192.558 85.4795 193.386 85.8934 193.127C86.0486 193.024 86.2038 192.92 86.359 192.765C86.928 192.403 87.4455 192.041 88.0663 191.679C88.6354 191.368 89.2044 191.058 89.7735 190.799C89.8769 190.748 90.4978 190.489 89.8253 190.748C89.2044 191.006 89.7218 190.799 89.877 190.748C90.2392 190.592 90.6011 190.489 90.9633 190.386C92.5153 189.868 93.9121 188.368 93.8086 186.661C93.7052 184.902 92.6705 183.505 90.9633 182.936C84.3413 180.711 77.4091 179.78 70.7354 177.659C69.9594 177.4 69.1834 177.142 68.4073 176.831C68.2521 176.779 68.0967 176.728 67.9415 176.676C67.8381 176.624 67.1656 176.262 67.7346 176.572C68.3037 176.883 67.6312 176.521 67.5278 176.469C67.3208 176.366 67.0623 176.262 66.8553 176.159C65.355 175.486 63.9581 174.658 62.613 173.727C62.4061 173.572 62.199 173.417 61.9921 173.313C61.5265 173.003 62.0958 173.468 62.1992 173.468C62.044 173.52 61.3713 172.796 61.2161 172.641C60.5435 172.02 59.8711 171.399 59.2503 170.727C58.7329 170.157 58.2156 169.537 57.6983 168.916C57.4396 168.605 57.1809 168.295 56.9223 167.985C57.5948 168.761 57.181 168.295 57.0258 168.088C56.8706 167.881 56.7154 167.622 56.5085 167.416C54.646 164.881 53.0939 162.19 51.697 159.397C51.3349 158.672 51.0246 158 50.7141 157.276C50.5589 156.965 50.4038 156.655 50.3004 156.293C50.1969 156.137 50.1452 155.931 50.0417 155.775C49.7313 155.051 50.3521 156.5 50.0417 155.827C49.4209 154.327 48.8516 152.775 48.2825 151.274C45.9545 144.859 44.1439 138.237 42.1262 131.719C39.3326 122.924 36.0734 114.284 31.8312 106.11C30.8999 104.3 28.2099 103.627 26.5026 104.714C24.6402 105.903 24.1228 108.076 25.1057 110.042C26.1404 112.008 27.1235 114.026 28.0547 116.043C28.4685 116.975 28.9341 117.906 29.2962 118.837C29.2445 118.734 28.9858 118.061 29.2445 118.734C29.3479 118.941 29.4514 119.199 29.5549 119.406C29.7618 119.923 29.9686 120.441 30.1756 120.906C31.6241 124.528 32.9175 128.201 34.1074 131.926C36.2803 138.6 38.1428 145.377 40.4191 151.999C42.5919 158.31 45.2304 164.57 49.007 170.106C51.0247 173.055 53.3008 176.055 56.0945 178.331C59.095 180.866 62.4062 182.677 66.0793 184.074C73.4256 186.919 81.3926 187.747 88.8424 190.23C88.8424 187.747 88.8424 185.264 88.8424 182.729C77.5643 186.35 71.0974 197.577 67.5278 208.13C65.6653 213.562 64.5272 219.253 63.9582 224.944C63.2339 232.29 63.7511 239.74 64.3719 247.086C65.0962 256.14 65.9757 265.193 64.9411 274.247C67.476 273.885 70.0111 273.574 72.5461 273.212C70.8906 265.09 68.5624 257.071 65.6653 249.311C62.7164 241.499 59.2502 233.79 55.0598 226.548C51.4901 220.443 47.1963 214.494 41.7124 209.993C38.7119 207.561 35.6077 205.595 31.9863 204.199C28.7787 202.905 25.4161 202.543 22.0017 202.233C19.5184 202.026 17.087 201.715 14.6038 201.56C10.9306 201.353 7.30915 201.508 3.63602 201.715C4.30857 204.147 4.92928 206.527 5.60182 208.958C11.7065 205.181 17.6559 201.043 22.9846 196.128C28.2615 191.213 33.1764 185.574 35.8148 178.797C38.3498 172.279 38.7636 164.984 38.6084 158C38.4532 150.085 37.8322 142.169 36.901 134.357C35.8146 125.149 34.2626 115.94 32.2449 106.886C31.7793 104.921 29.3997 103.575 27.4855 104.196C25.6748 105.076 24.5366 107.042 25.0539 109.163Z" fill="#231F20"/>
<path d="M228.577 213.355C229.301 216.201 229.87 219.046 230.284 221.995C230.232 221.633 230.181 221.323 230.129 220.96C230.905 226.703 231.008 232.601 230.232 238.343C230.284 237.981 230.336 237.671 230.387 237.308C229.767 241.964 228.577 246.517 226.766 250.811C226.921 250.501 227.025 250.19 227.18 249.88C226.301 251.949 225.318 253.967 224.128 255.881C223.559 256.864 222.886 257.847 222.214 258.778C221.903 259.192 221.593 259.606 221.282 260.02C222.11 258.933 221.438 259.813 221.231 260.071C221.024 260.33 220.817 260.589 220.61 260.796C219.161 262.555 217.506 264.158 215.799 265.659C215.385 266.021 214.919 266.383 214.505 266.745C214.247 266.952 213.367 267.625 214.453 266.797C214.195 266.952 213.988 267.159 213.729 267.366C212.746 268.09 211.712 268.763 210.677 269.435C208.711 270.625 206.745 271.66 204.624 272.539C204.934 272.384 205.245 272.281 205.555 272.126C204.055 272.746 202.555 273.367 201.054 274.04C200.02 274.505 199.037 274.919 198.261 275.695C196.502 277.351 196.812 280.196 198.623 281.593C199.554 282.317 200.796 282.524 201.882 282.834C203.745 283.404 205.607 284.076 207.418 284.852C207.107 284.697 206.797 284.593 206.486 284.438C211.401 286.559 216.161 289.198 220.403 292.405C220.506 292.509 220.61 292.56 220.713 292.664C219.834 291.991 220.196 292.302 220.403 292.405C220.662 292.612 220.868 292.767 221.127 292.974C221.593 293.336 222.058 293.75 222.472 294.113C223.248 294.837 224.024 295.561 224.749 296.389C225.111 296.751 225.421 297.165 225.783 297.579C225.938 297.786 226.094 297.993 226.249 298.199C226.404 298.406 226.663 298.769 225.939 297.837C226.042 297.993 226.145 298.096 226.249 298.251C226.87 299.079 227.491 299.958 228.008 300.89C229.353 303.011 230.439 305.287 231.474 307.615C231.319 307.305 231.215 306.994 231.06 306.684C234.785 315.582 236.492 325.153 238.148 334.62C238.561 337.155 239.027 339.69 239.493 342.225C239.648 343.105 240.527 344.14 241.252 344.553C242.028 344.967 242.856 345.122 243.735 345.019C245.649 344.76 247.046 343.157 247.098 341.191C247.253 336.897 247.408 332.603 247.563 328.257C247.719 324.118 247.718 319.928 248.288 315.789C248.236 316.151 248.184 316.462 248.132 316.824C248.65 313.254 249.426 309.684 250.357 306.218C250.823 304.511 251.34 302.804 251.857 301.097C252.323 299.7 252.737 298.251 253.306 296.854C253.151 297.165 253.047 297.475 252.892 297.786C253.616 296.13 254.548 294.578 255.634 293.13C255.789 292.923 255.944 292.716 256.099 292.457C256.462 291.991 255.427 293.285 255.996 292.561C256.358 292.095 256.72 291.681 257.082 291.215C257.755 290.388 258.479 289.612 259.204 288.836C260.756 287.232 262.411 285.68 264.118 284.18C264.532 283.817 264.946 283.507 265.36 283.145C265.567 282.99 265.774 282.834 265.981 282.628C266.084 282.524 266.188 282.421 266.343 282.369C266.188 282.472 265.567 282.99 266.033 282.576C266.86 281.955 267.74 281.334 268.567 280.713C270.275 279.575 272.034 278.489 273.948 277.713C273.637 277.868 273.327 277.971 273.017 278.127C273.172 278.075 273.327 278.023 273.482 277.92C274.413 277.558 275.293 277.04 275.81 276.161C276.224 275.385 276.379 274.557 276.276 273.678C276.017 271.763 274.413 270.315 272.448 270.315C271.568 270.315 270.689 270.263 269.861 270.16C270.223 270.211 270.533 270.263 270.896 270.315C269.188 270.056 267.481 269.59 265.877 268.918C266.188 269.073 266.498 269.177 266.809 269.332C265.826 268.918 264.894 268.452 264.015 267.883C263.549 267.625 263.135 267.314 262.67 267.056C262.463 266.9 262.204 266.745 261.997 266.59C261.894 266.538 261.79 266.435 261.687 266.383C261.635 266.331 261.583 266.28 261.532 266.28C261.169 265.969 262.049 266.693 261.997 266.642C260.238 265.193 258.583 263.641 257.031 261.934C256.668 261.468 256.255 261.054 255.893 260.589C255.737 260.382 255.53 260.123 255.375 259.916C254.961 259.399 255.789 260.434 255.634 260.227C255.53 260.071 255.427 259.968 255.323 259.813C254.547 258.83 253.875 257.795 253.151 256.76C251.702 254.588 250.409 252.311 249.219 249.983C247.822 247.293 246.529 244.499 245.339 241.706C245.494 242.016 245.597 242.327 245.753 242.637C242.286 234.411 239.596 225.823 237.372 217.132C236.854 215.114 236.389 213.149 235.923 211.131C235.458 209.165 233.078 207.82 231.164 208.441C229.198 209.268 228.059 211.234 228.577 213.355C229.663 218.063 230.853 222.771 232.25 227.427C233.854 232.859 235.716 238.291 237.837 243.568C240.114 249.104 242.649 254.588 245.856 259.658C248.702 264.21 252.116 268.659 256.306 272.022C258.324 273.626 260.445 275.126 262.825 276.161C265.463 277.299 268.05 278.023 270.947 278.282C271.516 278.334 272.085 278.334 272.603 278.334C272.241 275.799 271.93 273.264 271.568 270.729C267.326 272.384 263.653 274.971 260.135 277.816C256.617 280.662 253.306 283.869 250.512 287.439C249.115 289.198 247.822 290.957 246.787 292.974C245.597 295.354 244.822 297.941 244.046 300.476C242.183 306.632 240.683 312.892 240.217 319.307C239.958 322.928 239.907 326.602 239.803 330.223C239.7 333.948 239.544 337.621 239.441 341.346C241.976 340.984 244.511 340.673 247.046 340.311C245.184 330.016 243.787 319.566 240.476 309.633C238.768 304.615 236.647 299.596 233.543 295.251C231.991 293.026 230.232 290.957 228.267 289.094C225.99 287.025 223.455 285.163 220.868 283.507C218.023 281.645 215.023 279.989 211.919 278.592C210.16 277.765 208.349 277.04 206.486 276.368C204.986 275.85 203.486 275.436 201.985 274.971C202.296 275.126 202.606 275.23 202.917 275.385C203.382 275.85 203.796 276.264 204.262 276.73C204.417 277.04 204.521 277.351 204.676 277.661C204.727 278.023 204.779 278.334 204.831 278.696C204.779 279.058 204.727 279.368 204.676 279.73C204.521 280.041 204.417 280.351 204.262 280.662C203.951 281.127 203.538 281.696 203.072 281.903C203.175 281.851 203.227 281.8 203.331 281.748C203.589 281.593 203.848 281.489 204.107 281.334C204.831 280.972 205.607 280.662 206.383 280.351C206.072 280.506 205.762 280.61 205.452 280.765C207.573 279.886 209.746 279.006 211.815 277.92C214.195 276.678 216.419 275.23 218.54 273.626C223.041 270.16 226.921 266.073 229.974 261.313C235.871 252.26 238.458 241.292 238.51 230.583C238.51 224.168 237.63 217.701 236.078 211.493C235.561 209.527 233.285 208.13 231.319 208.803C229.249 209.268 228.008 211.234 228.577 213.355Z" fill="#231F20"/>
<path d="M280.984 76.1045C281.398 78.0187 281.76 79.9328 282.071 81.847C282.226 82.7782 282.381 83.7612 282.536 84.7441C282.588 85.0545 282.847 86.5031 282.64 85.365C282.743 85.934 282.795 86.5031 282.847 87.0204C283.312 90.9522 283.674 94.9358 283.881 98.9193C284.295 106.938 284.243 115.009 283.674 122.976C283.519 124.942 283.364 126.908 283.209 128.925C283.105 129.805 283.054 130.736 282.95 131.615C282.898 132.029 282.847 132.443 282.795 132.909C282.795 133.116 282.743 133.323 282.743 133.478C282.691 133.788 282.743 133.633 282.795 133.012C282.795 133.167 282.743 133.323 282.743 133.478C282.278 136.789 281.553 140.048 280.674 143.255C280.208 144.859 279.691 146.463 279.122 148.015C278.811 148.791 278.553 149.567 278.242 150.343C278.19 150.55 278.087 150.705 278.035 150.912C278.346 149.929 278.191 150.498 278.087 150.757C277.88 151.171 277.725 151.636 277.518 152.05C276.121 155.103 274.517 158 272.603 160.793C272.086 161.569 271.517 162.345 270.948 163.07C270.793 163.277 270.482 163.535 271.103 162.863C270.948 163.07 270.741 163.277 270.586 163.484C270.275 163.846 270.016 164.208 269.706 164.57C268.516 165.967 267.275 167.26 265.93 168.554C265.257 169.174 264.584 169.795 263.86 170.416C263.498 170.726 263.084 170.985 262.774 171.295C263.446 170.623 263.188 170.985 262.929 171.192C262.722 171.347 262.515 171.502 262.256 171.658C260.756 172.744 259.152 173.779 257.497 174.658C256.048 175.434 255.22 177.452 255.738 179.056C255.945 179.676 256.255 180.297 256.721 180.763C257.29 181.384 258.583 182.004 259.463 181.901C262.929 181.487 266.395 181.28 269.861 181.384C271.569 181.435 273.224 181.539 274.931 181.694C275.345 181.746 275.811 181.798 276.225 181.849C276.535 181.901 278.087 182.108 276.742 181.901C277.621 182.056 278.501 182.16 279.38 182.315C282.743 182.884 286.106 183.712 289.365 184.746C291.021 185.264 292.676 185.833 294.28 186.505C294.642 186.661 294.952 186.764 295.314 186.919C295.521 187.023 295.728 187.074 295.935 187.178C294.849 186.764 295.573 187.023 295.832 187.126C296.66 187.488 297.436 187.85 298.263 188.213C301.419 189.713 304.472 191.368 307.369 193.231C308.817 194.162 310.214 195.093 311.559 196.128C311.921 196.387 312.283 196.645 312.645 196.904C312.801 197.059 313.008 197.163 313.163 197.318C312.335 196.697 312.697 196.956 312.904 197.111C313.68 197.732 314.405 198.301 315.129 198.922C317.716 201.094 320.199 203.474 322.475 205.957C323.665 207.251 324.803 208.596 325.941 209.993C326.148 210.303 326.407 210.562 326.614 210.872C325.786 209.889 326.769 211.079 326.924 211.338C327.441 212.062 327.959 212.786 328.476 213.511C330.649 216.666 332.615 219.977 334.27 223.392C334.684 224.271 335.098 225.151 335.46 225.978C335.771 226.703 335.098 225.099 335.408 225.875C335.512 226.134 335.615 226.444 335.719 226.703C335.874 227.117 336.029 227.531 336.185 227.944C336.909 229.807 337.53 231.721 338.047 233.635C338.616 235.601 340.841 236.998 342.807 236.325C343.738 236.015 344.669 235.446 345.135 234.566C345.652 233.583 345.704 232.652 345.548 231.566C345.548 231.514 345.393 230.531 345.497 231.152C345.6 231.773 345.445 230.842 345.445 230.79C345.393 230.428 345.342 230.066 345.29 229.703C345.186 228.876 345.083 228.048 345.031 227.22C344.928 225.927 344.824 224.633 344.772 223.34C344.721 221.322 344.772 219.253 344.721 217.235C344.721 214.7 344.566 212.217 344.307 209.682C344.1 207.768 343.841 205.854 343.583 203.94C343.427 202.802 343.272 201.663 343.117 200.474C343.065 200.267 343.065 200.06 343.014 199.853C342.858 198.87 343.117 200.474 343.014 199.853C342.962 199.284 342.858 198.766 342.807 198.197C342.341 194.524 341.927 190.799 341.824 187.074C341.772 185.16 341.772 183.298 341.927 181.384C341.979 180.504 342.031 179.573 342.186 178.693C341.979 179.78 342.289 178.176 342.289 177.969C342.393 177.452 342.445 176.986 342.548 176.469C342.858 174.865 343.324 173.313 343.841 171.813C344.048 171.14 344.307 170.468 344.566 169.795C344.669 169.485 344.773 169.174 344.928 168.916C344.98 168.709 345.083 168.554 345.135 168.347C345.497 167.519 344.979 168.761 345.135 168.398C346.376 165.656 347.773 163.018 349.429 160.535C349.894 159.862 350.567 159.138 350.981 158.414C350.929 158.465 350.412 159.138 350.825 158.621C350.981 158.414 351.136 158.258 351.291 158.052C351.55 157.741 351.808 157.431 352.067 157.12C353.153 155.879 354.292 154.689 355.533 153.551C356.154 152.982 356.827 152.412 357.499 151.843C358.016 151.43 357.344 151.999 357.292 151.999C357.499 151.895 357.654 151.688 357.861 151.585C358.223 151.326 358.586 151.067 358.896 150.809C360.293 149.826 361.741 148.998 363.293 148.222C364.742 147.498 365.57 145.377 365.052 143.825C364.483 142.117 363.086 141.083 361.327 140.979C359.517 140.876 357.706 140.721 355.895 140.514C355.481 140.462 355.068 140.41 354.654 140.358C354.447 140.358 354.24 140.255 354.033 140.255C355.067 140.203 354.395 140.307 354.085 140.255C353.153 140.1 352.222 139.996 351.343 139.841C347.825 139.22 344.359 138.444 340.996 137.461C339.289 136.944 337.633 136.427 335.978 135.806C335.202 135.495 334.426 135.237 333.598 134.926C333.494 134.875 332.408 134.461 332.408 134.461C332.563 134.512 332.718 134.616 332.874 134.668C332.718 134.616 332.563 134.512 332.408 134.461C332.201 134.357 331.943 134.254 331.736 134.15C328.476 132.702 325.372 131.046 322.372 129.132C320.871 128.149 319.371 127.166 317.974 126.08C317.819 125.976 317.715 125.873 317.56 125.769C318.44 126.39 317.715 125.925 317.56 125.769C317.25 125.511 316.888 125.252 316.577 124.993C315.853 124.424 315.18 123.803 314.508 123.183C313.215 121.993 311.921 120.751 310.731 119.458C309.49 118.113 308.403 116.664 307.213 115.319C307.938 116.147 307.058 115.112 306.903 114.853C306.644 114.491 306.386 114.181 306.127 113.819C305.558 113.043 305.041 112.267 304.523 111.491C303.489 109.939 302.557 108.335 301.626 106.731C299.815 103.524 298.212 100.213 296.711 96.7982C296.66 96.643 296.556 96.4878 296.505 96.3326C296.453 96.1774 296.349 96.0222 296.298 95.867C296.505 96.3843 296.556 96.4361 296.401 96.0739C296.194 95.6083 295.987 95.0909 295.78 94.6253C295.418 93.6941 295.056 92.763 294.694 91.8317C293.97 89.9176 293.245 87.9516 292.573 86.0375C291.176 82.0539 289.882 78.0704 288.589 74.0869C287.968 72.1727 285.847 70.7242 283.83 71.3967C281.76 71.9658 280.312 74.0352 280.984 76.1045C285.64 90.6418 290.503 105.645 299.557 118.113C304.161 124.476 309.697 129.96 316.215 134.461C322.372 138.703 329.252 141.91 336.34 144.238C344.41 146.877 352.843 148.325 361.327 148.791C360.655 146.36 360.034 143.98 359.362 141.548C347.618 147.394 339.444 159.034 335.874 171.502C333.701 179.107 333.805 187.023 334.684 194.783C334.943 196.956 335.202 199.077 335.512 201.25C335.564 201.767 335.667 202.232 335.719 202.75C335.771 202.957 335.771 203.164 335.823 203.371C335.978 204.354 335.719 202.75 335.823 203.422C335.978 204.405 336.081 205.44 336.236 206.423C336.598 209.475 336.961 212.528 337.012 215.58C337.064 217.908 337.012 220.236 337.064 222.564C337.168 226.237 337.581 229.91 338.099 233.583C340.582 232.911 343.065 232.187 345.6 231.514C341.617 217.442 333.339 204.716 322.475 195.041C311.611 185.315 298.16 178.228 283.881 175.279C275.914 173.623 267.637 173.106 259.566 174.141C260.239 176.572 260.86 178.952 261.532 181.384C274.259 174.4 282.847 161.828 287.347 148.274C289.676 141.238 290.71 133.943 291.279 126.545C291.952 118.371 292.159 110.197 291.848 102.023C291.486 92.6595 290.503 83.2956 288.589 74.1386C288.175 72.1727 285.744 70.8276 283.83 71.4484C281.605 72.0175 280.57 73.9834 280.984 76.1045Z" fill="#231F20"/>
</svg>
