<svg width="339" height="63" viewBox="0 0 339 63" fill="none" xmlns="http://www.w3.org/2000/svg">
<path d="M69.32 44.34V37.68H79.1C80.38 37.68 81.54 37.42 82.58 36.9C83.62 36.38 84.44 35.64 85.04 34.68C85.64 33.68 85.94 32.48 85.94 31.08C85.94 29.72 85.64 28.54 85.04 27.54C84.44 26.54 83.62 25.78 82.58 25.26C81.54 24.74 80.38 24.48 79.1 24.48H69.32V17.82H79.94C82.62 17.82 85.02 18.36 87.14 19.44C89.3 20.52 91 22.06 92.24 24.06C93.48 26.02 94.1 28.36 94.1 31.08C94.1 33.8 93.48 36.16 92.24 38.16C91 40.12 89.3 41.64 87.14 42.72C85.02 43.8 82.62 44.34 79.94 44.34H69.32ZM63.32 60V17.82H71.48V60H63.32Z" fill="#A855F7"/>
<path d="M99.4527 60V31.02H107.313V60H99.4527ZM107.313 43.98L104.253 41.94C104.613 38.38 105.653 35.58 107.373 33.54C109.093 31.46 111.573 30.42 114.813 30.42C116.213 30.42 117.473 30.66 118.593 31.14C119.713 31.58 120.733 32.32 121.653 33.36L116.733 39C116.293 38.52 115.753 38.16 115.113 37.92C114.513 37.68 113.813 37.56 113.013 37.56C111.333 37.56 109.953 38.1 108.873 39.18C107.833 40.22 107.313 41.82 107.313 43.98ZM137.213 60.6C134.293 60.6 131.653 59.94 129.293 58.62C126.973 57.26 125.113 55.44 123.713 53.16C122.353 50.84 121.673 48.26 121.673 45.42C121.673 42.58 122.353 40.04 123.713 37.8C125.073 35.52 126.933 33.72 129.293 32.4C131.653 31.04 134.273 30.36 137.153 30.36C140.113 30.36 142.753 31.04 145.073 32.4C147.433 33.72 149.293 35.52 150.653 37.8C152.013 40.04 152.693 42.58 152.693 45.42C152.693 48.26 152.013 50.84 150.653 53.16C149.293 55.44 147.433 57.26 145.073 58.62C142.753 59.94 140.133 60.6 137.213 60.6ZM137.153 53.28C138.633 53.28 139.933 52.96 141.053 52.32C142.213 51.64 143.093 50.72 143.693 49.56C144.333 48.36 144.653 47 144.653 45.48C144.653 43.96 144.333 42.62 143.693 41.46C143.053 40.3 142.173 39.4 141.053 38.76C139.933 38.08 138.633 37.74 137.153 37.74C135.713 37.74 134.433 38.08 133.313 38.76C132.193 39.4 131.313 40.3 130.673 41.46C130.033 42.62 129.713 43.96 129.713 45.48C129.713 47 130.033 48.36 130.673 49.56C131.313 50.72 132.193 51.64 133.313 52.32C134.433 52.96 135.713 53.28 137.153 53.28ZM160.89 60V27C160.89 24.92 161.35 23.06 162.27 21.42C163.19 19.74 164.47 18.42 166.11 17.46C167.79 16.46 169.77 15.96 172.05 15.96C173.49 15.96 174.77 16.18 175.89 16.62C177.05 17.06 178.15 17.7 179.19 18.54L174.69 24.06C174.33 23.78 173.93 23.58 173.49 23.46C173.09 23.3 172.61 23.22 172.05 23.22C171.01 23.22 170.19 23.54 169.59 24.18C169.03 24.78 168.75 25.62 168.75 26.7V60H160.89ZM154.17 37.92V31.02H182.91V37.92H154.17ZM179.13 60V31.02H186.99V60H179.13ZM183.03 28.68C181.79 28.68 180.75 28.26 179.91 27.42C179.11 26.58 178.71 25.54 178.71 24.3C178.71 23.06 179.11 22.02 179.91 21.18C180.75 20.34 181.79 19.92 183.03 19.92C184.31 19.92 185.35 20.34 186.15 21.18C186.95 22.02 187.35 23.06 187.35 24.3C187.35 25.54 186.95 26.58 186.15 27.42C185.35 28.26 184.31 28.68 183.03 28.68ZM258.801 60.6C255.761 60.6 253.061 59.96 250.701 58.68C248.341 57.36 246.461 55.56 245.061 53.28C243.701 51 243.021 48.4 243.021 45.48C243.021 42.6 243.681 40.04 245.001 37.8C246.361 35.52 248.201 33.72 250.521 32.4C252.841 31.04 255.421 30.36 258.261 30.36C261.061 30.36 263.521 31 265.641 32.28C267.801 33.52 269.481 35.24 270.681 37.44C271.921 39.6 272.541 42.06 272.541 44.82C272.541 45.34 272.501 45.88 272.421 46.44C272.381 46.96 272.281 47.56 272.121 48.24L247.761 48.3V42.42L268.461 42.36L265.281 44.82C265.201 43.1 264.881 41.66 264.321 40.5C263.801 39.34 263.021 38.46 261.981 37.86C260.981 37.22 259.741 36.9 258.261 36.9C256.701 36.9 255.341 37.26 254.181 37.98C253.021 38.66 252.121 39.64 251.481 40.92C250.881 42.16 250.581 43.64 250.581 45.36C250.581 47.12 250.901 48.66 251.541 49.98C252.221 51.26 253.181 52.26 254.421 52.98C255.661 53.66 257.101 54 258.741 54C260.221 54 261.561 53.76 262.761 53.28C263.961 52.76 265.001 52 265.881 51L270.501 55.62C269.101 57.26 267.381 58.5 265.341 59.34C263.341 60.18 261.161 60.6 258.801 60.6ZM277.402 60V31.02H285.262V60H277.402ZM285.262 43.98L282.202 41.94C282.562 38.38 283.602 35.58 285.322 33.54C287.042 31.46 289.522 30.42 292.762 30.42C294.162 30.42 295.422 30.66 296.542 31.14C297.662 31.58 298.682 32.32 299.602 33.36L294.682 39C294.242 38.52 293.702 38.16 293.062 37.92C292.462 37.68 291.762 37.56 290.962 37.56C289.282 37.56 287.902 38.1 286.822 39.18C285.782 40.22 285.262 41.82 285.262 43.98ZM302.363 60V31.02H310.283V60H302.363ZM306.323 26.34C305.043 26.34 303.983 25.92 303.143 25.08C302.303 24.2 301.883 23.12 301.883 21.84C301.883 20.6 302.303 19.54 303.143 18.66C303.983 17.78 305.043 17.34 306.323 17.34C307.643 17.34 308.703 17.78 309.503 18.66C310.343 19.54 310.763 20.6 310.763 21.84C310.763 23.12 310.343 24.2 309.503 25.08C308.703 25.92 307.643 26.34 306.323 26.34ZM321.506 60V18.96H329.366V60H321.506ZM314.726 37.92V31.02H336.146V37.92H314.726Z" fill="white"/>
<path d="M194.804 60V17.82H200.564L217.664 45.18H214.364L231.404 17.82H237.164V60H229.064V31.8L230.624 32.28L218.744 51.36H213.224L201.344 32.28L202.964 31.8V60H194.804Z" fill="#FACC15"/>
<circle cx="37" cy="51" r="12" fill="#A855F7"/>
<circle cx="37" cy="24" r="12" fill="#FACC15"/>
<path d="M2 27C2 19.8203 7.8203 14 15 14H21V33H2V27Z" stroke="#A855F7" stroke-width="4"/>
<path d="M21 46.9995C21 54.1792 15.1797 59.9995 8 59.9995H2V40.9995H21V46.9995Z" stroke="#FACC15" stroke-width="4"/>
</svg>
