<svg width="346" height="68" viewBox="0 0 346 68" fill="none" xmlns="http://www.w3.org/2000/svg">
<g clip-path="url(#clip0_21_21)">
<path d="M74.32 41.34V34.68H84.1C85.38 34.68 86.54 34.42 87.58 33.9C88.62 33.38 89.44 32.64 90.04 31.68C90.64 30.68 90.94 29.48 90.94 28.08C90.94 26.72 90.64 25.54 90.04 24.54C89.44 23.54 88.62 22.78 87.58 22.26C86.54 21.74 85.38 21.48 84.1 21.48H74.32V14.82H84.94C87.62 14.82 90.02 15.36 92.14 16.44C94.3 17.52 96 19.06 97.24 21.06C98.48 23.02 99.1 25.36 99.1 28.08C99.1 30.8 98.48 33.16 97.24 35.16C96 37.12 94.3 38.64 92.14 39.72C90.02 40.8 87.62 41.34 84.94 41.34H74.32ZM68.32 57V14.82H76.48V57H68.32Z" fill="#A855F7"/>
<path d="M104.453 57V28.02H112.313V57H104.453ZM112.313 40.98L109.253 38.94C109.613 35.38 110.653 32.58 112.373 30.54C114.093 28.46 116.573 27.42 119.813 27.42C121.213 27.42 122.473 27.66 123.593 28.14C124.713 28.58 125.733 29.32 126.653 30.36L121.733 36C121.293 35.52 120.753 35.16 120.113 34.92C119.513 34.68 118.813 34.56 118.013 34.56C116.333 34.56 114.953 35.1 113.873 36.18C112.833 37.22 112.313 38.82 112.313 40.98ZM142.213 57.6C139.293 57.6 136.653 56.94 134.293 55.62C131.973 54.26 130.113 52.44 128.713 50.16C127.353 47.84 126.673 45.26 126.673 42.42C126.673 39.58 127.353 37.04 128.713 34.8C130.073 32.52 131.933 30.72 134.293 29.4C136.653 28.04 139.273 27.36 142.153 27.36C145.113 27.36 147.753 28.04 150.073 29.4C152.433 30.72 154.293 32.52 155.653 34.8C157.013 37.04 157.693 39.58 157.693 42.42C157.693 45.26 157.013 47.84 155.653 50.16C154.293 52.44 152.433 54.26 150.073 55.62C147.753 56.94 145.133 57.6 142.213 57.6ZM142.153 50.28C143.633 50.28 144.933 49.96 146.053 49.32C147.213 48.64 148.093 47.72 148.693 46.56C149.333 45.36 149.653 44 149.653 42.48C149.653 40.96 149.333 39.62 148.693 38.46C148.053 37.3 147.173 36.4 146.053 35.76C144.933 35.08 143.633 34.74 142.153 34.74C140.713 34.74 139.433 35.08 138.313 35.76C137.193 36.4 136.313 37.3 135.673 38.46C135.033 39.62 134.713 40.96 134.713 42.48C134.713 44 135.033 45.36 135.673 46.56C136.313 47.72 137.193 48.64 138.313 49.32C139.433 49.96 140.713 50.28 142.153 50.28ZM165.89 57V24C165.89 21.92 166.35 20.06 167.27 18.42C168.19 16.74 169.47 15.42 171.11 14.46C172.79 13.46 174.77 12.96 177.05 12.96C178.49 12.96 179.77 13.18 180.89 13.62C182.05 14.06 183.15 14.7 184.19 15.54L179.69 21.06C179.33 20.78 178.93 20.58 178.49 20.46C178.09 20.3 177.61 20.22 177.05 20.22C176.01 20.22 175.19 20.54 174.59 21.18C174.03 21.78 173.75 22.62 173.75 23.7V57H165.89ZM159.17 34.92V28.02H187.91V34.92H159.17ZM184.13 57V28.02H191.99V57H184.13ZM188.03 25.68C186.79 25.68 185.75 25.26 184.91 24.42C184.11 23.58 183.71 22.54 183.71 21.3C183.71 20.06 184.11 19.02 184.91 18.18C185.75 17.34 186.79 16.92 188.03 16.92C189.31 16.92 190.35 17.34 191.15 18.18C191.95 19.02 192.35 20.06 192.35 21.3C192.35 22.54 191.95 23.58 191.15 24.42C190.35 25.26 189.31 25.68 188.03 25.68ZM263.801 57.6C260.761 57.6 258.061 56.96 255.701 55.68C253.341 54.36 251.461 52.56 250.061 50.28C248.701 48 248.021 45.4 248.021 42.48C248.021 39.6 248.681 37.04 250.001 34.8C251.361 32.52 253.201 30.72 255.521 29.4C257.841 28.04 260.421 27.36 263.261 27.36C266.061 27.36 268.521 28 270.641 29.28C272.801 30.52 274.481 32.24 275.681 34.44C276.921 36.6 277.541 39.06 277.541 41.82C277.541 42.34 277.501 42.88 277.421 43.44C277.381 43.96 277.281 44.56 277.121 45.24L252.761 45.3V39.42L273.461 39.36L270.281 41.82C270.201 40.1 269.881 38.66 269.321 37.5C268.801 36.34 268.021 35.46 266.981 34.86C265.981 34.22 264.741 33.9 263.261 33.9C261.701 33.9 260.341 34.26 259.181 34.98C258.021 35.66 257.121 36.64 256.481 37.92C255.881 39.16 255.581 40.64 255.581 42.36C255.581 44.12 255.901 45.66 256.541 46.98C257.221 48.26 258.181 49.26 259.421 49.98C260.661 50.66 262.101 51 263.741 51C265.221 51 266.561 50.76 267.761 50.28C268.961 49.76 270.001 49 270.881 48L275.501 52.62C274.101 54.26 272.381 55.5 270.341 56.34C268.341 57.18 266.161 57.6 263.801 57.6ZM282.402 57V28.02H290.262V57H282.402ZM290.262 40.98L287.202 38.94C287.562 35.38 288.602 32.58 290.322 30.54C292.042 28.46 294.522 27.42 297.762 27.42C299.162 27.42 300.422 27.66 301.542 28.14C302.662 28.58 303.682 29.32 304.602 30.36L299.682 36C299.242 35.52 298.702 35.16 298.062 34.92C297.462 34.68 296.762 34.56 295.962 34.56C294.282 34.56 292.902 35.1 291.822 36.18C290.782 37.22 290.262 38.82 290.262 40.98ZM307.363 57V28.02H315.283V57H307.363ZM311.323 23.34C310.043 23.34 308.983 22.92 308.143 22.08C307.303 21.2 306.883 20.12 306.883 18.84C306.883 17.6 307.303 16.54 308.143 15.66C308.983 14.78 310.043 14.34 311.323 14.34C312.643 14.34 313.703 14.78 314.503 15.66C315.343 16.54 315.763 17.6 315.763 18.84C315.763 20.12 315.343 21.2 314.503 22.08C313.703 22.92 312.643 23.34 311.323 23.34ZM326.506 57V15.96H334.366V57H326.506ZM319.726 34.92V28.02H341.146V34.92H319.726Z" fill="#27272A"/>
<path d="M199.804 57V14.82H205.564L222.664 42.18H219.364L236.404 14.82H242.164V57H234.064V28.8L235.624 29.28L223.744 48.36H218.224L206.344 29.28L207.964 28.8V57H199.804Z" fill="#FACC15"/>
<circle cx="42" cy="48" r="12" fill="#A855F7"/>
<circle cx="42" cy="21" r="12" fill="#FACC15"/>
<path d="M20 11H26V30H7V24C7 16.8203 12.8203 11 20 11Z" stroke="#A855F7" stroke-width="4"/>
<path d="M13 56.9995H7V37.9995H26V43.9995C26 51.1792 20.1797 56.9995 13 56.9995Z" stroke="#FACC15" stroke-width="4"/>
</g>
<defs>
<clipPath id="clip0_21_21">
<rect width="346" height="68" fill="white"/>
</clipPath>
</defs>
</svg>
