<svg width="264" height="128" viewBox="0 0 264 128" fill="none" xmlns="http://www.w3.org/2000/svg">
<path d="M263.452 92.2598C260.87 92.9867 258.159 94.6543 255.736 94.298C236.065 91.4617 218.239 98.5596 200.111 103.99C186.496 108.066 173.56 109.862 159.672 102.85C153.989 99.9849 145.004 101.909 137.995 103.562C126.732 106.213 115.742 110.19 104.825 114.109C94.5132 117.801 85.5571 115.107 79.0816 107.525C71.9716 99.201 63.6646 98.9302 54.723 101.382C38.9021 105.7 24.8984 113.81 11.8898 123.602C7.83718 126.652 0.62619 124.457 0.0204678 119.483C-0.210284 117.559 1.54921 114.28 3.32311 113.397C14.5867 107.767 25.98 102.308 37.6041 97.4194C47.9879 93.058 58.8332 88.6823 70.2699 92.103C75.9088 93.7991 81.3892 97.3766 85.8311 101.31C91.4701 106.313 97.1668 105.814 103.455 104.09C117.675 100.17 131.779 95.7803 146.173 92.5734C151.206 91.4474 157.523 91.9178 162.167 94.0129C172.55 98.6879 182.574 98.5026 193.044 95.3669C205.519 91.6184 217.907 87.4423 230.584 84.5347C236.122 83.2662 242.309 84.606 248.194 84.9624C251.179 85.1476 254.251 85.3899 257.063 86.2736C259.529 87.0433 261.692 88.7536 264 90.0506C263.827 90.7775 263.654 91.5187 263.466 92.2456L263.452 92.2598Z" fill="#FACC15"/>
<path d="M263.452 92.2598C260.87 92.9867 258.159 94.6543 255.736 94.298C236.065 91.4617 218.239 98.5596 200.111 103.99C186.496 108.066 173.56 109.862 159.672 102.85C153.989 99.9849 145.004 101.909 137.995 103.562C126.732 106.213 115.742 110.19 104.825 114.109C94.5132 117.801 85.5571 115.107 79.0816 107.525C71.9716 99.201 63.6646 98.9302 54.723 101.382C38.9021 105.7 24.8984 113.81 11.8898 123.602C7.83718 126.652 0.62619 124.457 0.0204678 119.483C-0.210284 117.559 1.54921 114.28 3.32311 113.397C14.5867 107.767 25.98 102.308 37.6041 97.4194C47.9879 93.058 58.8332 88.6823 70.2699 92.103C75.9088 93.7991 81.3892 97.3766 85.8311 101.31C91.4701 106.313 97.1668 105.814 103.455 104.09C117.675 100.17 131.779 95.7803 146.173 92.5734C151.206 91.4474 157.523 91.9178 162.167 94.0129C172.55 98.6879 182.574 98.5026 193.044 95.3669C205.519 91.6184 217.907 87.4423 230.584 84.5347C236.122 83.2662 242.309 84.606 248.194 84.9624C251.179 85.1476 254.251 85.3899 257.063 86.2736C259.529 87.0433 261.692 88.7536 264 90.0506C263.827 90.7775 263.654 91.5187 263.466 92.2456L263.452 92.2598Z" fill="#FACC15"/>
<path d="M37.3203 84.9375C36.7344 84.9375 36.0898 84.8594 35.3867 84.7031C34.7227 84.5469 34.0781 84.293 33.4531 83.9414C32.8672 83.5898 32.3594 83.1602 31.9297 82.6523C31.5391 82.1055 31.3438 81.4609 31.3438 80.7188C31.3438 79.625 31.3828 78.5508 31.4609 77.4961C31.5781 76.4023 31.6953 75.3281 31.8125 74.2734V74.332L32.1641 70.4062C32.2812 69 32.3789 67.457 32.457 65.7773C32.5352 64.0977 32.5938 62.3984 32.6328 60.6797C32.7109 58.9219 32.7695 57.2031 32.8086 55.5234C32.8477 53.8438 32.8672 52.3008 32.8672 50.8945C32.8672 50.0742 32.8477 49.2539 32.8086 48.4336C32.8086 47.5742 32.8086 46.7148 32.8086 45.8555C32.7695 45.1133 32.75 44.293 32.75 43.3945C32.75 42.457 32.75 41.5977 32.75 40.8164C32.75 39.9961 32.8477 39.332 33.043 38.8242C33.2773 38.2773 33.9023 38.0039 34.918 38.0039C35.8164 38.0039 36.7539 38.2383 37.7305 38.707C38.7461 39.1758 39.4492 39.8398 39.8398 40.6992H39.7812C39.9766 41.1289 40.1133 41.832 40.1914 42.8086C40.3086 43.7461 40.3867 44.5859 40.4258 45.3281C41.0898 44.3125 41.832 43.2383 42.6523 42.1055C43.5117 40.9727 44.4297 39.9375 45.4062 39C46.3828 38.0234 47.418 37.2227 48.5117 36.5977C49.6055 35.9727 50.7773 35.6602 52.0273 35.6602C53.668 35.6602 54.918 36.0703 55.7773 36.8906C56.6367 37.7109 57.2617 38.7461 57.6523 39.9961C58.043 41.207 58.2578 42.5156 58.2969 43.9219C58.3359 45.2891 58.3555 46.5391 58.3555 47.6719V48.1406C58.3555 48.6094 58.3359 49.0781 58.2969 49.5469C58.2969 49.9766 58.2188 50.3867 58.0625 50.7773C57.9453 51.1289 57.7109 51.4219 57.3594 51.6562C57.0469 51.8906 56.5977 52.0078 56.0117 52.0078C55.3867 52.0078 54.7227 51.9297 54.0195 51.7734C53.3164 51.5781 52.6523 51.3047 52.0273 50.9531C51.4414 50.6016 50.9336 50.1719 50.5039 49.6641C50.0742 49.1172 49.8398 48.4922 49.8008 47.7891C49.8008 47.4766 49.8008 47.1641 49.8008 46.8516C49.8008 46.5391 49.8203 46.2266 49.8594 45.9141C49.8594 45.7188 49.8594 45.4844 49.8594 45.2109C49.8984 44.8984 49.918 44.6055 49.918 44.332C48.668 45.582 47.5547 47.125 46.5781 48.9609C45.6406 50.7969 44.7812 52.75 44 54.8203C43.2578 56.8906 42.6133 58.9805 42.0664 61.0898C41.5195 63.1602 41.0508 65.0352 40.6602 66.7148V66.8906C40.543 68.1016 40.4648 69.293 40.4258 70.4648C40.3867 71.6367 40.3477 72.8477 40.3086 74.0977C40.2695 75.5039 40.2109 76.9297 40.1328 78.375C40.0938 79.8203 39.9961 81.2266 39.8398 82.5938C39.7617 83.3359 39.5273 83.9023 39.1367 84.293C38.7852 84.7227 38.1797 84.9375 37.3203 84.9375ZM86.3047 59.9766C86.3047 63.375 86.0117 66.7734 85.4258 70.1719C84.8789 73.5312 83.7266 76.7148 81.9688 79.7227C81.4219 80.6211 80.7969 81.5 80.0938 82.3594C79.3906 83.1797 78.6094 83.9219 77.75 84.5859C76.9297 85.2891 76.0117 85.8359 74.9961 86.2266C74.0195 86.6562 72.9844 86.8711 71.8906 86.8711C70.1719 86.8711 68.668 86.4609 67.3789 85.6406C66.1289 84.8594 65.0352 83.8242 64.0977 82.5352C63.1992 81.207 62.4375 79.7227 61.8125 78.082C61.2266 76.4023 60.7578 74.7031 60.4062 72.9844C60.0938 71.2266 59.8594 69.5273 59.7031 67.8867C59.5859 66.2461 59.5273 64.8008 59.5273 63.5508C59.5273 62.1445 59.5859 60.6016 59.7031 58.9219C59.8203 57.2422 60.0156 55.5234 60.2891 53.7656C60.6016 52.0078 60.9922 50.2695 61.4609 48.5508C61.9688 46.832 62.6133 45.2305 63.3945 43.7461C64.1758 42.2227 65.1133 40.875 66.207 39.7031C67.3008 38.4922 68.5703 37.5352 70.0156 36.832V36.8906C71.2656 36.2266 72.5156 35.8945 73.7656 35.8945C74.5469 35.8945 75.1523 36.0703 75.582 36.4219C76.0117 36.7344 76.207 37.2812 76.168 38.0625C78.3164 38.4531 80.0547 39.4883 81.3828 41.168C82.7109 42.8477 83.7266 44.8008 84.4297 47.0273C85.1719 49.2539 85.6602 51.5391 85.8945 53.8828C86.168 56.2266 86.3047 58.2578 86.3047 59.9766ZM73.0625 45.3281C72.3984 45.3281 71.7734 45.0742 71.1875 44.5664C70.4453 45.6992 69.8203 47.0078 69.3125 48.4922C68.8047 49.9375 68.3945 51.4414 68.082 53.0039C67.8086 54.5273 67.6133 56.0703 67.4961 57.6328C67.3789 59.1953 67.3203 60.6602 67.3203 62.0273C67.3203 63.1602 67.3789 64.625 67.4961 66.4219C67.6133 68.1797 67.8281 69.957 68.1406 71.7539C68.4922 73.5508 68.9609 75.2305 69.5469 76.793C70.1719 78.3555 70.9727 79.5078 71.9492 80.25C73.1602 79.5469 74.1562 78.4336 74.9375 76.9102C75.7578 75.3477 76.4023 73.6484 76.8711 71.8125C77.3398 69.9766 77.6523 68.1211 77.8086 66.2461C78.0039 64.3711 78.1016 62.7695 78.1016 61.4414C78.1016 60.4648 78.043 59.1953 77.9258 57.6328C77.8086 56.0703 77.6133 54.4883 77.3398 52.8867C77.0664 51.2461 76.6758 49.7227 76.168 48.3164C75.6992 46.9102 75.0938 45.8555 74.3516 45.1523C74 45.2695 73.5703 45.3281 73.0625 45.3281ZM114.957 77.4375C114.957 78.1406 114.664 78.7852 114.078 79.3711C113.492 79.957 112.73 80.4844 111.793 80.9531C110.895 81.3828 109.859 81.7734 108.688 82.125C107.555 82.4766 106.441 82.7695 105.348 83.0039C104.254 83.1992 103.238 83.3555 102.301 83.4727C101.402 83.5898 100.699 83.6484 100.191 83.6484C99.2148 83.6484 98.1797 83.5703 97.0859 83.4141C95.9922 83.2578 94.918 83.0234 93.8633 82.7109C92.8086 82.3594 91.8125 81.9297 90.875 81.4219C89.9375 80.875 89.1367 80.2305 88.4727 79.4883V79.5469C88.1602 79.2344 87.8672 78.8633 87.5938 78.4336C87.2812 78.0039 87.125 77.5156 87.125 76.9688C87.125 76.6172 87.2617 76.3047 87.5352 76.0312C87.8086 75.7578 88.1211 75.5625 88.4727 75.4453C88.8633 74.5078 89.2734 73.5703 89.7031 72.6328C90.1328 71.6953 90.5625 70.7773 90.9922 69.8789L91.8711 67.8281C93.9414 63.7656 95.8555 59.7422 97.6133 55.7578C99.4102 51.7734 101.188 47.6523 102.945 43.3945L100.602 43.5117L97.7305 43.6875L95.7969 43.9219C95.25 44 94.7227 44.0586 94.2148 44.0977C93.7461 44.1367 93.2578 44.1562 92.75 44.1562C91.2656 44.1562 90.5234 43.4336 90.5234 41.9883C90.5234 41.3242 90.6016 40.7383 90.7578 40.2305C90.9141 39.6836 91.207 39.1953 91.6367 38.7656C91.832 38.5312 92.3398 38.3164 93.1602 38.1211C94.0195 37.8867 95.0156 37.6914 96.1484 37.5352C97.2812 37.3398 98.4922 37.1641 99.7812 37.0078C101.109 36.8516 102.379 36.7148 103.59 36.5977C104.801 36.4805 105.875 36.4023 106.812 36.3633C107.789 36.2852 108.473 36.2461 108.863 36.2461C109.566 36.2461 110.211 36.3438 110.797 36.5391C111.422 36.7344 111.734 37.3203 111.734 38.2969C111.734 38.8438 111.598 39.4492 111.324 40.1133C111.051 40.7383 110.758 41.3047 110.445 41.8125C110.523 42.0078 110.562 42.3008 110.562 42.6914C110.562 43.1211 110.406 43.8438 110.094 44.8594C109.781 45.875 109.352 47.1055 108.805 48.5508C108.297 49.9961 107.691 51.5977 106.988 53.3555C106.285 55.1133 105.543 56.9102 104.762 58.7461C104.02 60.582 103.258 62.418 102.477 64.2539C101.695 66.0898 100.953 67.8086 100.25 69.4102L96.9688 77.0273C97.6328 77.1836 98.3945 77.2617 99.2539 77.2617C101.012 77.2617 102.672 76.9297 104.234 76.2656C105.836 75.6016 107.203 74.9375 108.336 74.2734C109 73.9219 109.586 73.6289 110.094 73.3945C110.602 73.1211 111.012 72.9844 111.324 72.9844C111.832 72.9844 112.301 73.1406 112.73 73.4531C113.199 73.7266 113.59 74.0977 113.902 74.5664C114.254 74.9961 114.508 75.4648 114.664 75.9727C114.859 76.4805 114.957 76.9688 114.957 77.4375ZM138.16 46.9688C138.16 47.2812 138.16 47.5938 138.16 47.9062C138.16 48.1797 138.121 48.4531 138.043 48.7266C138.629 50.8359 139.156 52.9648 139.625 55.1133C140.133 57.2227 140.621 59.332 141.09 61.4414C141.324 59.0586 141.52 56.6758 141.676 54.293C141.871 51.8711 141.969 49.4688 141.969 47.0859C141.969 44.7422 141.891 42.3594 141.734 39.9375C141.578 37.4766 141.188 35.1328 140.562 32.9062L140.328 32.0859C140.25 31.8906 140.191 31.6758 140.152 31.4414C140.113 31.207 140.094 30.9727 140.094 30.7383C140.094 30.3086 140.191 29.9766 140.387 29.7422C140.621 29.4688 140.895 29.2734 141.207 29.1562C141.52 29.0391 141.871 28.9609 142.262 28.9219C142.652 28.8828 143.004 28.8633 143.316 28.8633C144.293 28.8633 145.309 28.9805 146.363 29.2148C147.066 29.4102 147.633 29.7031 148.062 30.0938C148.492 30.4453 148.805 30.875 149 31.3828C149.234 31.8906 149.391 32.457 149.469 33.082C149.547 33.668 149.605 34.2734 149.645 34.8984C149.645 34.9766 149.645 35.0547 149.645 35.1328C149.684 35.2109 149.703 35.2891 149.703 35.3672C149.898 37.0859 150.035 38.8242 150.113 40.582C150.23 42.3008 150.289 44 150.289 45.6797C150.289 50.9141 149.977 56.1289 149.352 61.3242C148.766 66.5195 148.043 71.6758 147.184 76.793C147.066 77.5742 146.891 78.375 146.656 79.1953C146.461 80.0156 146.168 80.7773 145.777 81.4805C145.387 82.1836 144.879 82.7695 144.254 83.2383C143.629 83.668 142.848 83.8828 141.91 83.8828C140.855 83.8828 139.996 83.6484 139.332 83.1797C138.668 82.6719 138.121 82.0469 137.691 81.3047C137.301 80.5234 137.008 79.6641 136.812 78.7266C136.617 77.7891 136.461 76.8711 136.344 75.9727C136.266 75.543 136.188 75.1523 136.109 74.8008C136.07 74.4492 136.012 74.1172 135.934 73.8047L134.293 66.5391C133.98 67.6328 133.551 69.0195 133.004 70.6992C132.496 72.3398 131.93 74 131.305 75.6797C130.719 77.3594 130.113 78.8828 129.488 80.25C128.902 81.6172 128.414 82.5547 128.023 83.0625C127.594 83.5703 127.047 83.9609 126.383 84.2344C125.719 84.5469 125.055 84.7031 124.391 84.7031C123.219 84.7031 122.203 84.332 121.344 83.5898C120.562 82.8086 120.055 81.9102 119.82 80.8945C119.586 79.8789 119.41 78.8633 119.293 77.8477C119.293 77.7695 119.273 77.6719 119.234 77.5547C119.234 77.4375 119.234 77.3398 119.234 77.2617C118.648 72.9648 118.219 68.6094 117.945 64.1953C117.672 59.7422 117.535 55.3086 117.535 50.8945V41.168C117.535 40.8164 117.555 40.4453 117.594 40.0547C117.633 39.6641 117.711 39.3125 117.828 39C117.984 38.6484 118.199 38.375 118.473 38.1797C118.785 37.9844 119.215 37.8867 119.762 37.8867C121.207 37.8867 122.398 38.3164 123.336 39.1758C124.273 40.0352 124.801 41.168 124.918 42.5742C125.035 44.4492 125.113 46.3438 125.152 48.2578C125.23 50.1719 125.289 52.0664 125.328 53.9414C125.367 56.0898 125.387 58.1797 125.387 60.2109C125.426 62.2031 125.562 64.3125 125.797 66.5391C126.266 65.0156 126.715 63.4336 127.145 61.793C127.574 60.1523 127.945 58.4922 128.258 56.8125C128.609 55.1328 128.883 53.4727 129.078 51.832C129.312 50.1523 129.43 48.5312 129.43 46.9688C129.43 46.7734 129.41 46.6172 129.371 46.5C129.371 46.3438 129.371 46.168 129.371 45.9727C129.332 45.7773 129.312 45.582 129.312 45.3867C129.312 45.1914 129.312 44.9961 129.312 44.8008C129.312 43.8242 129.527 43.1016 129.957 42.6328C130.387 42.1641 131.129 41.9297 132.184 41.9297C132.574 41.9297 133.043 41.9883 133.59 42.1055C134.176 42.2227 134.742 42.3984 135.289 42.6328C135.875 42.8672 136.402 43.1602 136.871 43.5117C137.34 43.8633 137.652 44.2539 137.809 44.6836H137.75C137.945 45.0742 138.062 45.4453 138.102 45.7969C138.141 46.1484 138.16 46.5391 138.16 46.9688ZM181.227 59.9766C181.227 63.375 180.934 66.7734 180.348 70.1719C179.801 73.5312 178.648 76.7148 176.891 79.7227C176.344 80.6211 175.719 81.5 175.016 82.3594C174.312 83.1797 173.531 83.9219 172.672 84.5859C171.852 85.2891 170.934 85.8359 169.918 86.2266C168.941 86.6562 167.906 86.8711 166.812 86.8711C165.094 86.8711 163.59 86.4609 162.301 85.6406C161.051 84.8594 159.957 83.8242 159.02 82.5352C158.121 81.207 157.359 79.7227 156.734 78.082C156.148 76.4023 155.68 74.7031 155.328 72.9844C155.016 71.2266 154.781 69.5273 154.625 67.8867C154.508 66.2461 154.449 64.8008 154.449 63.5508C154.449 62.1445 154.508 60.6016 154.625 58.9219C154.742 57.2422 154.938 55.5234 155.211 53.7656C155.523 52.0078 155.914 50.2695 156.383 48.5508C156.891 46.832 157.535 45.2305 158.316 43.7461C159.098 42.2227 160.035 40.875 161.129 39.7031C162.223 38.4922 163.492 37.5352 164.938 36.832V36.8906C166.188 36.2266 167.438 35.8945 168.688 35.8945C169.469 35.8945 170.074 36.0703 170.504 36.4219C170.934 36.7344 171.129 37.2812 171.09 38.0625C173.238 38.4531 174.977 39.4883 176.305 41.168C177.633 42.8477 178.648 44.8008 179.352 47.0273C180.094 49.2539 180.582 51.5391 180.816 53.8828C181.09 56.2266 181.227 58.2578 181.227 59.9766ZM167.984 45.3281C167.32 45.3281 166.695 45.0742 166.109 44.5664C165.367 45.6992 164.742 47.0078 164.234 48.4922C163.727 49.9375 163.316 51.4414 163.004 53.0039C162.73 54.5273 162.535 56.0703 162.418 57.6328C162.301 59.1953 162.242 60.6602 162.242 62.0273C162.242 63.1602 162.301 64.625 162.418 66.4219C162.535 68.1797 162.75 69.957 163.062 71.7539C163.414 73.5508 163.883 75.2305 164.469 76.793C165.094 78.3555 165.895 79.5078 166.871 80.25C168.082 79.5469 169.078 78.4336 169.859 76.9102C170.68 75.3477 171.324 73.6484 171.793 71.8125C172.262 69.9766 172.574 68.1211 172.73 66.2461C172.926 64.3711 173.023 62.7695 173.023 61.4414C173.023 60.4648 172.965 59.1953 172.848 57.6328C172.73 56.0703 172.535 54.4883 172.262 52.8867C171.988 51.2461 171.598 49.7227 171.09 48.3164C170.621 46.9102 170.016 45.8555 169.273 45.1523C168.922 45.2695 168.492 45.3281 167.984 45.3281ZM192.477 28.4531C192.477 28.9219 192.457 29.3906 192.418 29.8594C192.418 30.2891 192.398 30.7383 192.359 31.207C192.32 31.6758 192.301 32.1445 192.301 32.6133C192.301 33.082 192.301 33.5508 192.301 34.0195C192.301 34.7227 192.184 35.3672 191.949 35.9531C191.715 36.5391 191.148 36.832 190.25 36.832C189.938 36.832 189.41 36.7734 188.668 36.6562C187.965 36.5391 187.223 36.3633 186.441 36.1289C185.699 35.8945 185.035 35.6211 184.449 35.3086C183.863 34.957 183.57 34.5664 183.57 34.1367C183.57 33.9805 183.648 33.4922 183.805 32.6719C184 31.8516 184.215 30.9727 184.449 30.0352C184.684 29.0586 184.898 28.1797 185.094 27.3984C185.289 26.5781 185.426 26.1289 185.504 26.0508V26.1094C185.699 25.6797 185.895 25.4258 186.09 25.3477C186.285 25.2695 186.598 25.2305 187.027 25.2305C187.496 25.2305 188.043 25.2891 188.668 25.4062C189.293 25.4844 189.879 25.6602 190.426 25.9336C191.012 26.168 191.5 26.5 191.891 26.9297C192.281 27.3203 192.477 27.8281 192.477 28.4531ZM202.906 65.8945C202.906 66.1289 202.711 66.6758 202.32 67.5352C201.969 68.3555 201.52 69.3125 200.973 70.4062C200.426 71.5 199.84 72.6523 199.215 73.8633C198.59 75.0352 198.043 76.0898 197.574 77.0273C197.34 77.4961 197.145 77.9258 196.988 78.3164C196.832 78.668 196.695 78.9414 196.578 79.1367L197.105 82.3008C197.809 86.793 198.473 91.3047 199.098 95.8359C199.723 100.367 200.035 104.938 200.035 109.547C200.035 110.914 199.996 112.32 199.918 113.766C199.879 115.25 199.703 116.695 199.391 118.102C199.117 119.508 198.648 120.836 197.984 122.086C197.359 123.375 196.461 124.488 195.289 125.426C194.391 126.129 193.414 126.676 192.359 127.066C191.305 127.496 190.211 127.711 189.078 127.711C186.93 127.711 185.152 127.242 183.746 126.305C182.379 125.406 181.285 124.234 180.465 122.789C179.645 121.344 179.078 119.723 178.766 117.926C178.414 116.168 178.238 114.41 178.238 112.652C178.238 109.566 178.551 106.5 179.176 103.453C179.762 100.406 180.543 97.3984 181.52 94.4297C182.496 91.4609 183.59 88.5508 184.801 85.6992C186.051 82.8477 187.301 80.0352 188.551 77.2617C187.965 73.7461 187.496 70.2695 187.145 66.832C186.793 63.3555 186.5 59.7812 186.266 56.1094L186.09 53.2969C186.012 51.8516 185.914 50.4062 185.797 48.9609C185.719 47.5156 185.68 46.0508 185.68 44.5664C185.68 43.7852 185.797 43.1211 186.031 42.5742C186.305 41.9883 186.891 41.6953 187.789 41.6953C188.219 41.6953 188.629 41.7344 189.02 41.8125C189.41 41.8906 189.82 42.0273 190.25 42.2227V42.1641C190.992 42.5156 191.559 42.9258 191.949 43.3945C192.34 43.8242 192.633 44.293 192.828 44.8008C193.023 45.3086 193.141 45.8555 193.18 46.4414C193.258 47.0273 193.297 47.6328 193.297 48.2578V49.1953C193.414 51.9297 193.551 54.4883 193.707 56.8711C193.902 59.2148 194.156 61.7539 194.469 64.4883C194.82 63.7852 195.23 63.1406 195.699 62.5547C196.207 61.9297 196.891 61.6172 197.75 61.6172C198.18 61.6172 198.688 61.7539 199.273 62.0273C199.898 62.3008 200.465 62.6523 200.973 63.082C201.52 63.5117 201.969 63.9805 202.32 64.4883C202.711 64.9961 202.906 65.4648 202.906 65.8945ZM192.184 108.141C192.184 105.562 192.047 102.926 191.773 100.23C191.539 97.5352 191.227 94.8789 190.836 92.2617C189.664 95.3867 188.648 98.668 187.789 102.105C186.93 105.582 186.5 108.961 186.5 112.242C186.5 112.906 186.52 113.629 186.559 114.41C186.598 115.23 186.695 116.051 186.852 116.871C187.008 117.691 187.223 118.473 187.496 119.215C187.77 119.957 188.141 120.562 188.609 121.031C188.648 121.07 188.766 121.09 188.961 121.09C189.469 121.09 189.898 120.816 190.25 120.27C190.602 119.762 190.895 119.098 191.129 118.277C191.363 117.457 191.539 116.539 191.656 115.523C191.812 114.508 191.93 113.512 192.008 112.535C192.086 111.598 192.125 110.719 192.125 109.898C192.164 109.117 192.184 108.531 192.184 108.141ZM229.625 45.3281C229.625 45.7188 229.586 46.1289 229.508 46.5586C229.43 46.9883 229.352 47.3789 229.273 47.7305C229.195 48.1602 229.117 48.5703 229.039 48.9609C228.961 49.3125 228.922 49.6641 228.922 50.0156C228.922 53.6484 228.98 57.3008 229.098 60.9727C229.254 64.6055 229.645 68.2578 230.27 71.9297C230.465 73.3359 230.699 74.7031 230.973 76.0312C231.246 77.3594 231.559 78.707 231.91 80.0742L232.027 80.4258V80.3086C232.145 80.582 232.242 80.875 232.32 81.1875C232.438 81.4609 232.496 81.7539 232.496 82.0664C232.496 82.4961 232.379 82.8477 232.145 83.1211C231.949 83.3945 231.695 83.6094 231.383 83.7656C231.07 83.9219 230.719 84.0195 230.328 84.0586C229.977 84.0977 229.645 84.1172 229.332 84.1172C228.043 84.1172 227.008 83.9805 226.227 83.707C225.484 83.3945 224.879 82.9844 224.41 82.4766C223.941 81.9297 223.59 81.2852 223.355 80.543C223.16 79.8008 222.984 78.9805 222.828 78.082L222.652 77.0273C222.496 76.4805 222.398 75.8945 222.359 75.2695C222.32 74.957 222.281 74.8203 222.242 74.8594C222.242 74.8594 222.223 74.7031 222.184 74.3906C221.637 75.3672 220.992 76.4219 220.25 77.5547C219.547 78.6484 218.727 79.6836 217.789 80.6602C216.891 81.5977 215.914 82.3984 214.859 83.0625C213.805 83.6875 212.672 84 211.461 84C209.781 84 208.473 83.4922 207.535 82.4766C206.637 81.4609 205.973 80.2305 205.543 78.7852C205.113 77.3008 204.859 75.7773 204.781 74.2148C204.703 72.6133 204.664 71.2266 204.664 70.0547C204.664 65.6016 204.801 61.1875 205.074 56.8125C205.387 52.4375 205.719 48.043 206.07 43.6289C206.07 43.5117 206.07 43.3555 206.07 43.1602C206.109 42.9648 206.129 42.8086 206.129 42.6914C206.168 42.1445 206.207 41.6367 206.246 41.168C206.285 40.6992 206.383 40.25 206.539 39.8203V39.8789C206.695 39.2539 206.91 38.8047 207.184 38.5312C207.496 38.2578 207.965 38.1211 208.59 38.1211C209.176 38.1211 209.762 38.2383 210.348 38.4727C210.934 38.668 211.461 38.9609 211.93 39.3516C212.398 39.7031 212.77 40.1328 213.043 40.6406C213.355 41.1484 213.512 41.7148 213.512 42.3398C213.512 42.6523 213.512 43.0234 213.512 43.4531C213.512 43.8828 213.492 44.2539 213.453 44.5664C213.453 44.8398 213.434 45.1914 213.395 45.6211C213.395 46.0117 213.395 46.3438 213.395 46.6172C213.082 50.3672 212.848 54.0977 212.691 57.8086C212.535 61.4805 212.457 65.2109 212.457 69C212.457 70.0547 212.457 71.1094 212.457 72.1641C212.496 73.2188 212.613 74.2734 212.809 75.3281C214.098 73.6875 215.211 71.5977 216.148 69.0586C217.086 66.4805 217.867 63.7656 218.492 60.9141C219.156 58.0234 219.684 55.1719 220.074 52.3594C220.504 49.5078 220.816 46.9883 221.012 44.8008C221.012 44.6836 221.012 44.5469 221.012 44.3906C221.051 44.2344 221.07 44.0977 221.07 43.9805C221.109 43.5508 221.148 43.1406 221.188 42.75C221.227 42.3594 221.363 41.9883 221.598 41.6367C221.598 41.2852 221.617 40.9141 221.656 40.5234C221.695 40.1328 221.793 39.7812 221.949 39.4688C222.105 39.1172 222.32 38.8438 222.594 38.6484C222.906 38.4531 223.336 38.3555 223.883 38.3555C225.445 38.3555 226.676 38.8438 227.574 39.8203C228.473 40.7578 228.961 41.9688 229.039 43.4531C229.234 43.7656 229.371 44.0781 229.449 44.3906C229.566 44.6641 229.625 44.9766 229.625 45.3281Z" fill="#FACC15"/>
</svg>
