<svg width="246" height="120" viewBox="0 0 246 120" fill="none" xmlns="http://www.w3.org/2000/svg">
<path d="M246 90.0087C242.965 90.9143 240.137 92.0996 237.253 92.5525C218.427 95.5091 199.609 98.6256 180.745 101.076C164.206 103.234 147.611 104.552 131.044 106.337C124.586 107.029 118.118 107.709 111.697 108.881C105.561 109.999 99.9532 108.561 94.7713 103.846C85.5991 95.4958 75.2259 93.3382 64.8339 94.9497C51.1039 97.0807 37.44 100.583 23.9086 104.539C17.8095 106.323 12.1076 110.705 6.16925 113.702C4.39154 114.607 1.97084 116.672 0.987419 112.383C-0.430971 106.257 -0.686274 104.632 2.70841 102.954C23.0954 92.7922 44.0308 86.2929 65.6281 84.6681C76.6443 83.8424 87.235 86.4794 96.9368 94.7233C101.986 99.0118 107.792 98.7454 113.504 98.1861C125.948 96.9741 138.42 96.0818 150.845 94.5502C170.249 92.1529 189.633 89.3428 209.027 86.6658C215.457 85.7868 221.869 84.7214 228.299 83.869C231.769 83.4162 235.249 83.0832 238.728 83.0033C241.877 82.9234 244.572 84.2552 246 90.022V90.0087Z" fill="#A855F7"/>
<path d="M51.6758 41.0508C51.6758 41.5195 51.5 41.9102 51.1484 42.2227C50.8359 42.5352 50.4453 42.8086 49.9766 43.043C49.5078 43.2383 49.0195 43.375 48.5117 43.4531C48.043 43.5312 47.6523 43.5703 47.3398 43.5703C46.8711 43.5703 46.4219 43.5312 45.9922 43.4531C45.5625 43.3359 45.1328 43.2188 44.7031 43.1016C44.2734 42.9844 43.8633 42.8867 43.4727 42.8086C43.082 42.6914 42.6719 42.6328 42.2422 42.6328C41.6562 42.6328 41.0703 42.7305 40.4844 42.9258C39.8984 43.1211 39.3711 43.3945 38.9023 43.7461C38.4336 44.0977 38.043 44.5273 37.7305 45.0352C37.457 45.543 37.3203 46.1094 37.3203 46.7344C37.3203 47.6719 37.5156 48.6094 37.9062 49.5469C38.2969 50.4453 38.8047 51.3633 39.4297 52.3008C40.0938 53.2383 40.8359 54.1953 41.6562 55.1719C42.5156 56.1094 43.4141 57.0664 44.3516 58.043C45.4844 59.293 46.6172 60.5625 47.75 61.8516C48.9219 63.1406 49.957 64.4883 50.8555 65.8945C51.793 67.3008 52.5547 68.7852 53.1406 70.3477C53.7266 71.9102 54.0195 73.5508 54.0195 75.2695C54.0195 76.7539 53.7656 78.082 53.2578 79.2539C52.7891 80.4258 52.1055 81.4219 51.207 82.2422C50.3477 83.0625 49.293 83.6875 48.043 84.1172C46.832 84.5859 45.5039 84.8203 44.0586 84.8203C43.668 84.8203 43.0625 84.7422 42.2422 84.5859C41.4609 84.4297 40.5625 84.2148 39.5469 83.9414C38.5312 83.6289 37.4766 83.2969 36.3828 82.9453C35.3281 82.5938 34.3516 82.2227 33.4531 81.832C32.5938 81.4023 31.8711 80.9922 31.2852 80.6016C30.7383 80.1719 30.4648 79.7812 30.4648 79.4297C30.4648 78.9609 30.6797 78.4922 31.1094 78.0234C31.5391 77.5156 32.0469 77.0664 32.6328 76.6758C33.2188 76.2461 33.8242 75.8945 34.4492 75.6211C35.1133 75.3477 35.6602 75.2109 36.0898 75.2109C36.6758 75.2109 37.2812 75.3477 37.9062 75.6211C38.5703 75.8945 39.2344 76.207 39.8984 76.5586C40.6406 76.9492 41.3828 77.3008 42.125 77.6133C42.9062 77.9258 43.707 78.082 44.5273 78.082C45.1523 78.082 45.5039 77.8672 45.582 77.4375C45.6992 77.0078 45.7578 76.5195 45.7578 75.9727C45.7578 74.6055 45.5234 73.3164 45.0547 72.1055C44.5859 70.8555 43.9805 69.6445 43.2383 68.4727C42.4961 67.3008 41.6367 66.168 40.6602 65.0742C39.6836 63.9414 38.707 62.8281 37.7305 61.7344C36.7148 60.6406 35.7188 59.5469 34.7422 58.4531C33.8047 57.3594 32.9648 56.2461 32.2227 55.1133C31.4805 53.9414 30.875 52.75 30.4062 51.5391C29.9766 50.3281 29.7617 49.0391 29.7617 47.6719C29.7617 45.9922 30.1328 44.4883 30.875 43.1602C31.6172 41.793 32.5742 40.6211 33.7461 39.6445C34.957 38.668 36.3047 37.9258 37.7891 37.418C39.3125 36.8711 40.8359 36.5977 42.3594 36.5977C42.8672 36.5977 43.6484 36.7148 44.7031 36.9492C45.7578 37.1445 46.793 37.4375 47.8086 37.8281C48.8242 38.2188 49.7227 38.6875 50.5039 39.2344C51.2852 39.7812 51.6758 40.3867 51.6758 41.0508ZM81.6172 45.3281C81.6172 45.7188 81.5781 46.1289 81.5 46.5586C81.4219 46.9883 81.3438 47.3789 81.2656 47.7305C81.1875 48.1602 81.1094 48.5703 81.0312 48.9609C80.9531 49.3125 80.9141 49.6641 80.9141 50.0156C80.9141 53.6484 80.9727 57.3008 81.0898 60.9727C81.2461 64.6055 81.6367 68.2578 82.2617 71.9297C82.457 73.3359 82.6914 74.7031 82.9648 76.0312C83.2383 77.3594 83.5508 78.707 83.9023 80.0742L84.0195 80.4258V80.3086C84.1367 80.582 84.2344 80.875 84.3125 81.1875C84.4297 81.4609 84.4883 81.7539 84.4883 82.0664C84.4883 82.4961 84.3711 82.8477 84.1367 83.1211C83.9414 83.3945 83.6875 83.6094 83.375 83.7656C83.0625 83.9219 82.7109 84.0195 82.3203 84.0586C81.9688 84.0977 81.6367 84.1172 81.3242 84.1172C80.0352 84.1172 79 83.9805 78.2188 83.707C77.4766 83.3945 76.8711 82.9844 76.4023 82.4766C75.9336 81.9297 75.582 81.2852 75.3477 80.543C75.1523 79.8008 74.9766 78.9805 74.8203 78.082L74.6445 77.0273C74.4883 76.4805 74.3906 75.8945 74.3516 75.2695C74.3125 74.957 74.2734 74.8203 74.2344 74.8594C74.2344 74.8594 74.2148 74.7031 74.1758 74.3906C73.6289 75.3672 72.9844 76.4219 72.2422 77.5547C71.5391 78.6484 70.7188 79.6836 69.7812 80.6602C68.8828 81.5977 67.9062 82.3984 66.8516 83.0625C65.7969 83.6875 64.6641 84 63.4531 84C61.7734 84 60.4648 83.4922 59.5273 82.4766C58.6289 81.4609 57.9648 80.2305 57.5352 78.7852C57.1055 77.3008 56.8516 75.7773 56.7734 74.2148C56.6953 72.6133 56.6562 71.2266 56.6562 70.0547C56.6562 65.6016 56.793 61.1875 57.0664 56.8125C57.3789 52.4375 57.7109 48.043 58.0625 43.6289C58.0625 43.5117 58.0625 43.3555 58.0625 43.1602C58.1016 42.9648 58.1211 42.8086 58.1211 42.6914C58.1602 42.1445 58.1992 41.6367 58.2383 41.168C58.2773 40.6992 58.375 40.25 58.5312 39.8203V39.8789C58.6875 39.2539 58.9023 38.8047 59.1758 38.5312C59.4883 38.2578 59.957 38.1211 60.582 38.1211C61.168 38.1211 61.7539 38.2383 62.3398 38.4727C62.9258 38.668 63.4531 38.9609 63.9219 39.3516C64.3906 39.7031 64.7617 40.1328 65.0352 40.6406C65.3477 41.1484 65.5039 41.7148 65.5039 42.3398C65.5039 42.6523 65.5039 43.0234 65.5039 43.4531C65.5039 43.8828 65.4844 44.2539 65.4453 44.5664C65.4453 44.8398 65.4258 45.1914 65.3867 45.6211C65.3867 46.0117 65.3867 46.3438 65.3867 46.6172C65.0742 50.3672 64.8398 54.0977 64.6836 57.8086C64.5273 61.4805 64.4492 65.2109 64.4492 69C64.4492 70.0547 64.4492 71.1094 64.4492 72.1641C64.4883 73.2188 64.6055 74.2734 64.8008 75.3281C66.0898 73.6875 67.2031 71.5977 68.1406 69.0586C69.0781 66.4805 69.8594 63.7656 70.4844 60.9141C71.1484 58.0234 71.6758 55.1719 72.0664 52.3594C72.4961 49.5078 72.8086 46.9883 73.0039 44.8008C73.0039 44.6836 73.0039 44.5469 73.0039 44.3906C73.043 44.2344 73.0625 44.0977 73.0625 43.9805C73.1016 43.5508 73.1406 43.1406 73.1797 42.75C73.2188 42.3594 73.3555 41.9883 73.5898 41.6367C73.5898 41.2852 73.6094 40.9141 73.6484 40.5234C73.6875 40.1328 73.7852 39.7812 73.9414 39.4688C74.0977 39.1172 74.3125 38.8438 74.5859 38.6484C74.8984 38.4531 75.3281 38.3555 75.875 38.3555C77.4375 38.3555 78.668 38.8438 79.5664 39.8203C80.4648 40.7578 80.9531 41.9688 81.0312 43.4531C81.2266 43.7656 81.3633 44.0781 81.4414 44.3906C81.5586 44.6641 81.6172 44.9766 81.6172 45.3281ZM117.125 84.8789C117.125 85.3086 116.891 85.6992 116.422 86.0508C115.953 86.4023 115.406 86.6953 114.781 86.9297C114.195 87.1641 113.59 87.3398 112.965 87.457C112.34 87.6133 111.852 87.6914 111.5 87.6914C110.836 87.6914 110.23 87.5547 109.684 87.2812C109.137 87.0469 108.629 86.7344 108.16 86.3438C107.691 85.9531 107.242 85.5234 106.812 85.0547C106.422 84.5859 106.051 84.1172 105.699 83.6484C104.332 81.9688 102.926 80.0938 101.48 78.0234C100.035 75.9531 98.7461 73.9805 97.6133 72.1055C97.6133 72.2617 97.6328 72.457 97.6719 72.6914C97.7109 72.9258 97.7305 73.1211 97.7305 73.2773C97.8086 74.0977 97.8672 74.918 97.9062 75.7383C97.9844 76.5195 98.082 77.3203 98.1992 78.1406C98.2383 78.6094 98.2773 79.0781 98.3164 79.5469C98.3945 79.9766 98.4727 80.4453 98.5508 80.9531C98.6289 81.5781 98.707 82.2031 98.7852 82.8281C98.8633 83.4531 98.9023 84.0977 98.9023 84.7617C98.9023 85.582 98.668 86.1289 98.1992 86.4023C97.7305 86.7148 97.1055 86.8711 96.3242 86.8711C95.7773 86.8711 95.1914 86.832 94.5664 86.7539C93.9414 86.6758 93.3359 86.5195 92.75 86.2852C92.1641 86.0508 91.6367 85.7383 91.168 85.3477C90.6992 84.957 90.3477 84.4492 90.1133 83.8242C89.9961 83.3555 89.8789 82.4766 89.7617 81.1875C89.6445 79.8984 89.5469 78.4727 89.4688 76.9102C89.3906 75.3086 89.3125 73.707 89.2344 72.1055C89.1953 70.5039 89.1562 69.1758 89.1172 68.1211C89.1172 67.8867 89.0977 67.6914 89.0586 67.5352C89.0586 67.3789 89.0586 67.2227 89.0586 67.0664C88.7461 66.793 88.4727 66.4609 88.2383 66.0703C88.0039 65.6797 87.8867 65.3086 87.8867 64.957C87.8867 64.4492 87.9844 64 88.1797 63.6094C88.375 63.2188 88.5898 62.8477 88.8242 62.4961C88.5898 57.6914 88.4727 52.9062 88.4727 48.1406C88.4727 44.1953 88.5117 40.2891 88.5898 36.4219C88.707 32.5156 88.8047 28.6094 88.8828 24.7031L89.0586 16.8516C89.0977 16.4609 89.1172 15.9531 89.1172 15.3281C89.1172 14.7031 89.1172 14.0391 89.1172 13.3359C89.1172 12.4766 89.1172 11.5781 89.1172 10.6406C89.1172 9.70312 89.1367 8.82422 89.1758 8.00391C89.2148 7.18359 89.2539 6.44141 89.293 5.77734C89.332 5.11328 89.4102 4.625 89.5273 4.3125V4.37109C89.6836 3.78516 89.8984 3.35547 90.1719 3.08203C90.4453 2.80859 90.9141 2.67188 91.5781 2.67188C93.2188 2.67188 94.4883 3.16016 95.3867 4.13672C96.2852 5.11328 96.7344 6.42188 96.7344 8.0625C96.7344 10.6797 96.7148 13.2969 96.6758 15.9141C96.6758 18.4922 96.6562 21.0898 96.6172 23.707C96.5781 26.3242 96.5391 28.9414 96.5 31.5586C96.5 34.1367 96.5 36.7344 96.5 39.3516C96.5 40.2891 96.5 41.2461 96.5 42.2227C96.5391 43.1602 96.5586 44.1172 96.5586 45.0938C96.5977 45.875 96.6172 46.6758 96.6172 47.4961C96.6172 48.3164 96.6172 49.1758 96.6172 50.0742L102.945 39.9961V40.0547L103.473 39C103.59 38.8047 103.648 38.668 103.648 38.5898C103.688 38.5117 103.727 38.4141 103.766 38.2969C103.844 38.1406 103.98 37.9062 104.176 37.5938C104.41 37.2812 104.801 36.8125 105.348 36.1875C105.543 35.9922 105.777 35.8164 106.051 35.6602C106.324 35.5039 106.676 35.4258 107.105 35.4258C107.535 35.4258 107.965 35.5625 108.395 35.8359C108.863 36.0703 109.273 36.3828 109.625 36.7734C109.977 37.1641 110.27 37.5938 110.504 38.0625C110.738 38.5312 110.855 38.9609 110.855 39.3516C110.855 39.6641 110.68 40.2109 110.328 40.9922C109.977 41.7344 109.508 42.6523 108.922 43.7461C108.375 44.8398 107.75 46.0312 107.047 47.3203C106.344 48.5703 105.602 49.8398 104.82 51.1289C104.078 52.418 103.355 53.668 102.652 54.8789C101.949 56.0898 101.324 57.1641 100.777 58.1016L99.2539 60.5625C100.152 62.125 101.188 63.8633 102.359 65.7773C103.57 67.6523 104.84 69.5469 106.168 71.4609C107.496 73.375 108.844 75.2109 110.211 76.9688C111.617 78.7266 112.984 80.2695 114.312 81.5977L114.898 82.0664C115.367 82.418 115.855 82.8477 116.363 83.3555C116.871 83.8242 117.125 84.332 117.125 84.8789ZM138.922 70.875C138.922 71.6953 138.785 72.5352 138.512 73.3945C138.238 74.2539 137.926 75.0742 137.574 75.8555C137.105 76.9883 136.539 78.1016 135.875 79.1953C135.211 80.25 134.449 81.207 133.59 82.0664C132.73 82.8867 131.754 83.5508 130.66 84.0586C129.566 84.5664 128.336 84.8203 126.969 84.8203C124.547 84.8203 122.535 84.2148 120.934 83.0039C119.332 81.793 118.062 80.2695 117.125 78.4336C116.188 76.5977 115.523 74.5859 115.133 72.3984C114.781 70.2109 114.605 68.1406 114.605 66.1875C114.605 64.7422 114.664 63.043 114.781 61.0898C114.898 59.0977 115.113 57.0469 115.426 54.9375C115.777 52.8281 116.266 50.7383 116.891 48.668C117.555 46.5977 118.395 44.7617 119.41 43.1602C120.426 41.5195 121.656 40.1914 123.102 39.1758C124.586 38.1602 126.344 37.6523 128.375 37.6523C128.805 37.6523 129.43 37.7305 130.25 37.8867C131.07 38.043 131.871 38.2773 132.652 38.5898C133.473 38.8633 134.176 39.2539 134.762 39.7617C135.387 40.2305 135.699 40.7773 135.699 41.4023C135.699 41.9883 135.426 42.4375 134.879 42.75C134.371 43.0625 133.746 43.2969 133.004 43.4531C132.301 43.5703 131.559 43.6484 130.777 43.6875C130.035 43.6875 129.43 43.6875 128.961 43.6875H127.906C126.812 44.6641 125.914 46.1094 125.211 48.0234C124.508 49.8984 123.961 51.9102 123.57 54.0586C123.18 56.207 122.906 58.3359 122.75 60.4453C122.594 62.5156 122.516 64.2148 122.516 65.543C122.516 67.418 122.652 69.2734 122.926 71.1094C123.238 72.9062 123.844 74.6055 124.742 76.207C124.938 76.5586 125.211 76.9688 125.562 77.4375C125.953 77.8672 126.383 78.082 126.852 78.082C127.203 78.082 127.555 77.7891 127.906 77.2031C128.297 76.6172 128.648 75.9336 128.961 75.1523C129.273 74.3711 129.527 73.6094 129.723 72.8672C129.918 72.125 130.055 71.5781 130.133 71.2266C130.172 71.0703 130.191 70.8945 130.191 70.6992C130.191 70.5039 130.191 70.3086 130.191 70.1133C130.191 69.7617 130.191 69.4297 130.191 69.1172C130.23 68.7656 130.289 68.4922 130.367 68.2969C130.641 67.6328 130.992 67.1836 131.422 66.9492C131.891 66.7148 132.457 66.5977 133.121 66.5977C133.707 66.5977 134.332 66.6758 134.996 66.832C135.66 66.9883 136.285 67.2422 136.871 67.5938C137.457 67.9453 137.945 68.3945 138.336 68.9414C138.727 69.4883 138.922 70.1328 138.922 70.875ZM164.234 73.2773C164.234 74.4492 163.902 75.6602 163.238 76.9102C162.613 78.1602 161.793 79.3125 160.777 80.3672C159.762 81.3828 158.59 82.2227 157.262 82.8867C155.973 83.5508 154.684 83.8828 153.395 83.8828C151.559 83.8828 149.977 83.5312 148.648 82.8281C147.32 82.0859 146.168 81.1094 145.191 79.8984C144.215 78.6484 143.414 77.2422 142.789 75.6797C142.203 74.1172 141.734 72.5156 141.383 70.875C141.031 69.1953 140.777 67.5352 140.621 65.8945C140.504 64.2148 140.445 62.6914 140.445 61.3242C140.445 60.1523 140.504 58.7656 140.621 57.1641C140.777 55.5625 141.012 53.9023 141.324 52.1836C141.676 50.4648 142.145 48.7656 142.73 47.0859C143.316 45.4062 144.039 43.9023 144.898 42.5742C145.797 41.2461 146.852 40.1719 148.062 39.3516C149.312 38.5312 150.738 38.1211 152.34 38.1211C153.59 38.1211 154.703 38.375 155.68 38.8828C156.695 39.3906 157.535 40.0742 158.199 40.9336C158.902 41.7539 159.43 42.7109 159.781 43.8047C160.172 44.8984 160.367 46.0312 160.367 47.2031C160.367 48.7266 160.016 50.3867 159.312 52.1836C158.609 53.9805 157.691 55.7188 156.559 57.3984C155.465 59.0781 154.215 60.6016 152.809 61.9688C151.441 63.2969 150.074 64.3125 148.707 65.0156C148.785 65.7188 148.941 66.7539 149.176 68.1211C149.41 69.4492 149.723 70.7773 150.113 72.1055C150.543 73.4336 151.031 74.5859 151.578 75.5625C152.164 76.5391 152.848 77.0273 153.629 77.0273C154.02 77.0273 154.352 76.9102 154.625 76.6758C154.938 76.4414 155.211 76.1289 155.445 75.7383C155.68 75.3477 155.875 74.918 156.031 74.4492C156.227 73.9805 156.402 73.5312 156.559 73.1016L156.91 72.2812C156.988 72.1641 157.027 72.0859 157.027 72.0469C157.066 72.0078 157.105 71.9492 157.145 71.8711C157.418 71.3633 157.672 70.8945 157.906 70.4648C158.18 70.0352 158.551 69.6641 159.02 69.3516H158.961C159.117 69.1953 159.273 69.1172 159.43 69.1172C159.625 69.0781 159.801 69.0586 159.957 69.0586C160.387 69.0586 160.855 69.1953 161.363 69.4688C161.871 69.7422 162.34 70.0938 162.77 70.5234C163.199 70.9141 163.551 71.3633 163.824 71.8711C164.098 72.3398 164.234 72.8086 164.234 73.2773ZM152.633 47.4375C152.633 47.0469 152.613 46.6367 152.574 46.207C152.535 45.7773 152.438 45.4062 152.281 45.0938C151.734 45.7578 151.246 46.5586 150.816 47.4961C150.426 48.3945 150.094 49.3516 149.82 50.3672C149.547 51.3438 149.312 52.3398 149.117 53.3555C148.961 54.3711 148.844 55.3086 148.766 56.168C149.781 54.957 150.68 53.5898 151.461 52.0664C152.242 50.5039 152.633 48.9609 152.633 47.4375ZM186.793 41.0508C186.793 41.5195 186.617 41.9102 186.266 42.2227C185.953 42.5352 185.562 42.8086 185.094 43.043C184.625 43.2383 184.137 43.375 183.629 43.4531C183.16 43.5312 182.77 43.5703 182.457 43.5703C181.988 43.5703 181.539 43.5312 181.109 43.4531C180.68 43.3359 180.25 43.2188 179.82 43.1016C179.391 42.9844 178.98 42.8867 178.59 42.8086C178.199 42.6914 177.789 42.6328 177.359 42.6328C176.773 42.6328 176.188 42.7305 175.602 42.9258C175.016 43.1211 174.488 43.3945 174.02 43.7461C173.551 44.0977 173.16 44.5273 172.848 45.0352C172.574 45.543 172.438 46.1094 172.438 46.7344C172.438 47.6719 172.633 48.6094 173.023 49.5469C173.414 50.4453 173.922 51.3633 174.547 52.3008C175.211 53.2383 175.953 54.1953 176.773 55.1719C177.633 56.1094 178.531 57.0664 179.469 58.043C180.602 59.293 181.734 60.5625 182.867 61.8516C184.039 63.1406 185.074 64.4883 185.973 65.8945C186.91 67.3008 187.672 68.7852 188.258 70.3477C188.844 71.9102 189.137 73.5508 189.137 75.2695C189.137 76.7539 188.883 78.082 188.375 79.2539C187.906 80.4258 187.223 81.4219 186.324 82.2422C185.465 83.0625 184.41 83.6875 183.16 84.1172C181.949 84.5859 180.621 84.8203 179.176 84.8203C178.785 84.8203 178.18 84.7422 177.359 84.5859C176.578 84.4297 175.68 84.2148 174.664 83.9414C173.648 83.6289 172.594 83.2969 171.5 82.9453C170.445 82.5938 169.469 82.2227 168.57 81.832C167.711 81.4023 166.988 80.9922 166.402 80.6016C165.855 80.1719 165.582 79.7812 165.582 79.4297C165.582 78.9609 165.797 78.4922 166.227 78.0234C166.656 77.5156 167.164 77.0664 167.75 76.6758C168.336 76.2461 168.941 75.8945 169.566 75.6211C170.23 75.3477 170.777 75.2109 171.207 75.2109C171.793 75.2109 172.398 75.3477 173.023 75.6211C173.688 75.8945 174.352 76.207 175.016 76.5586C175.758 76.9492 176.5 77.3008 177.242 77.6133C178.023 77.9258 178.824 78.082 179.645 78.082C180.27 78.082 180.621 77.8672 180.699 77.4375C180.816 77.0078 180.875 76.5195 180.875 75.9727C180.875 74.6055 180.641 73.3164 180.172 72.1055C179.703 70.8555 179.098 69.6445 178.355 68.4727C177.613 67.3008 176.754 66.168 175.777 65.0742C174.801 63.9414 173.824 62.8281 172.848 61.7344C171.832 60.6406 170.836 59.5469 169.859 58.4531C168.922 57.3594 168.082 56.2461 167.34 55.1133C166.598 53.9414 165.992 52.75 165.523 51.5391C165.094 50.3281 164.879 49.0391 164.879 47.6719C164.879 45.9922 165.25 44.4883 165.992 43.1602C166.734 41.793 167.691 40.6211 168.863 39.6445C170.074 38.668 171.422 37.9258 172.906 37.418C174.43 36.8711 175.953 36.5977 177.477 36.5977C177.984 36.5977 178.766 36.7148 179.82 36.9492C180.875 37.1445 181.91 37.4375 182.926 37.8281C183.941 38.2188 184.84 38.6875 185.621 39.2344C186.402 39.7812 186.793 40.3867 186.793 41.0508ZM216.734 45.3281C216.734 45.7188 216.695 46.1289 216.617 46.5586C216.539 46.9883 216.461 47.3789 216.383 47.7305C216.305 48.1602 216.227 48.5703 216.148 48.9609C216.07 49.3125 216.031 49.6641 216.031 50.0156C216.031 53.6484 216.09 57.3008 216.207 60.9727C216.363 64.6055 216.754 68.2578 217.379 71.9297C217.574 73.3359 217.809 74.7031 218.082 76.0312C218.355 77.3594 218.668 78.707 219.02 80.0742L219.137 80.4258V80.3086C219.254 80.582 219.352 80.875 219.43 81.1875C219.547 81.4609 219.605 81.7539 219.605 82.0664C219.605 82.4961 219.488 82.8477 219.254 83.1211C219.059 83.3945 218.805 83.6094 218.492 83.7656C218.18 83.9219 217.828 84.0195 217.438 84.0586C217.086 84.0977 216.754 84.1172 216.441 84.1172C215.152 84.1172 214.117 83.9805 213.336 83.707C212.594 83.3945 211.988 82.9844 211.52 82.4766C211.051 81.9297 210.699 81.2852 210.465 80.543C210.27 79.8008 210.094 78.9805 209.938 78.082L209.762 77.0273C209.605 76.4805 209.508 75.8945 209.469 75.2695C209.43 74.957 209.391 74.8203 209.352 74.8594C209.352 74.8594 209.332 74.7031 209.293 74.3906C208.746 75.3672 208.102 76.4219 207.359 77.5547C206.656 78.6484 205.836 79.6836 204.898 80.6602C204 81.5977 203.023 82.3984 201.969 83.0625C200.914 83.6875 199.781 84 198.57 84C196.891 84 195.582 83.4922 194.645 82.4766C193.746 81.4609 193.082 80.2305 192.652 78.7852C192.223 77.3008 191.969 75.7773 191.891 74.2148C191.812 72.6133 191.773 71.2266 191.773 70.0547C191.773 65.6016 191.91 61.1875 192.184 56.8125C192.496 52.4375 192.828 48.043 193.18 43.6289C193.18 43.5117 193.18 43.3555 193.18 43.1602C193.219 42.9648 193.238 42.8086 193.238 42.6914C193.277 42.1445 193.316 41.6367 193.355 41.168C193.395 40.6992 193.492 40.25 193.648 39.8203V39.8789C193.805 39.2539 194.02 38.8047 194.293 38.5312C194.605 38.2578 195.074 38.1211 195.699 38.1211C196.285 38.1211 196.871 38.2383 197.457 38.4727C198.043 38.668 198.57 38.9609 199.039 39.3516C199.508 39.7031 199.879 40.1328 200.152 40.6406C200.465 41.1484 200.621 41.7148 200.621 42.3398C200.621 42.6523 200.621 43.0234 200.621 43.4531C200.621 43.8828 200.602 44.2539 200.562 44.5664C200.562 44.8398 200.543 45.1914 200.504 45.6211C200.504 46.0117 200.504 46.3438 200.504 46.6172C200.191 50.3672 199.957 54.0977 199.801 57.8086C199.645 61.4805 199.566 65.2109 199.566 69C199.566 70.0547 199.566 71.1094 199.566 72.1641C199.605 73.2188 199.723 74.2734 199.918 75.3281C201.207 73.6875 202.32 71.5977 203.258 69.0586C204.195 66.4805 204.977 63.7656 205.602 60.9141C206.266 58.0234 206.793 55.1719 207.184 52.3594C207.613 49.5078 207.926 46.9883 208.121 44.8008C208.121 44.6836 208.121 44.5469 208.121 44.3906C208.16 44.2344 208.18 44.0977 208.18 43.9805C208.219 43.5508 208.258 43.1406 208.297 42.75C208.336 42.3594 208.473 41.9883 208.707 41.6367C208.707 41.2852 208.727 40.9141 208.766 40.5234C208.805 40.1328 208.902 39.7812 209.059 39.4688C209.215 39.1172 209.43 38.8438 209.703 38.6484C210.016 38.4531 210.445 38.3555 210.992 38.3555C212.555 38.3555 213.785 38.8438 214.684 39.8203C215.582 40.7578 216.07 41.9688 216.148 43.4531C216.344 43.7656 216.48 44.0781 216.559 44.3906C216.676 44.6641 216.734 44.9766 216.734 45.3281Z" fill="#A855F7"/>
</svg>
